<?xml version="1.0" encoding="UTF-8"?>
<!DOCTYPE svg PUBLIC "-//W3C//DTD SVG 1.1//EN" "http://www.w3.org/Graphics/SVG/1.1/DTD/svg11.dtd">
<!-- Creator: CorelDRAW 2018 (64-Bit Evaluation Version) -->
<svg xmlns="http://www.w3.org/2000/svg" xml:space="preserve" width="135.467mm" height="25.4mm" version="1.1" style="shape-rendering:geometricPrecision; text-rendering:geometricPrecision; image-rendering:optimizeQuality; fill-rule:evenodd; clip-rule:evenodd"
viewBox="0 0 13546.66 2540"
 xmlns:xlink="http://www.w3.org/1999/xlink">
 <defs>
  <style type="text/css">
   <![CDATA[
    .str0 {stroke:#373435;stroke-width:169.33;stroke-miterlimit:22.9256}
    .str3 {stroke:#FEFEFE;stroke-width:20;stroke-miterlimit:22.9256}
    .str1 {stroke:#FEFEFE;stroke-width:20;stroke-miterlimit:22.9256}
    .str2 {stroke:#FFF212;stroke-width:20;stroke-miterlimit:22.9256}
    .fil11 {fill:none}
    .fil9 {fill:#FEFEFE}
    .fil6 {fill:#FEFEFE}
    .fil5 {fill:#BDBFC1}
    .fil7 {fill:#848688}
    .fil8 {fill:#727376}
    .fil10 {fill:#FFF212}
    .fil4 {fill:#F16436}
    .fil3 {fill:#C93438}
    .fil0 {fill:#4AC0EF}
    .fil1 {fill:black}
    .fil2 {fill:white}
    .fil12 {fill:#FEFEFE;fill-rule:nonzero;fill-opacity:0.501961}
   ]]>
  </style>
   <clipPath id="id0">
    <path d="M-0 0l13546.67 0 0 2540 -13546.67 0 0 -2540z"/>
   </clipPath>
    <mask id="id1">
  <linearGradient id="id2" gradientUnits="userSpaceOnUse" x1="12081.93" y1="482.6" x2="8707.4" y2="723.36">
   <stop offset="0" style="stop-opacity:1; stop-color:white"/>
   <stop offset="1" style="stop-opacity:0; stop-color:white"/>
  </linearGradient>
     <rect style="fill:url(#id2)" width="13546.67" height="4540"/>
    </mask>
   <clipPath id="id3">
    <path d="M-0 0l13546.67 0 0 2540 -13546.67 0 0 -2540z"/>
   </clipPath>
     <mask id="id4">
       <pattern id="id5" patternUnits="userSpaceOnUse" x="4060.11" y="-5918.21" width="10160.01" height="10160.01" viewBox="1693.33 -3810 10160 10160">
        <g id="Layer_x0020_1_0">
         <metadata id="CorelCorpID_1Corel-Layer"/>
         <rect id="1" class="fil1" x="1693.32" y="-3810" width="10159.99" height="10160"/>
         <g>
          <path id="2" class="fil2" d="M9964.48 279.08c302.33,-77.3 337.73,-289.83 426.38,-515.9 118.34,-301.83 -87.07,-848.73 454.92,-792.88 213.12,21.96 -10.43,-52.64 -82.81,-101.84 -74.9,-50.89 -289.58,12.34 -243.04,-56.14 23.51,-34.61 56.28,-226.27 42.35,-260.01 -23.72,-57.43 -138.98,99.3 -138.96,141.19 0.1,288.94 -88.83,560.3 -116.39,827.76 -15.65,151.88 -55.29,276.35 -105.95,424.51 -18.48,54.08 -77.58,133.74 -97.55,192.12 -24.18,70.76 -156.18,127 -138.95,141.19z"/>
          <path id="3" class="fil2" d="M10054.57 8.44c102.03,-131.1 191.04,-357.99 98.48,-503.03 -42.64,-66.82 -96.02,-98.09 -144.36,-108.18 -28.55,-5.96 -49.59,-20.66 -75.35,-23.32l-61.55 -6.34c-7.37,-0.76 -37.31,6.32 -47.75,10.63 -48.65,20.1 -87.57,6.53 -16.98,13.8 82.31,8.48 138.62,5.54 205.92,114.53 22.08,35.77 17.11,104.42 14.92,157.04 -4.68,112.84 -140.87,202.53 -107.06,284.44 10.75,26.04 14.94,101.11 18.09,126.27 4.79,38.46 114.86,108.38 115.64,-65.84z"/>
          <path id="4" class="fil2" d="M10182.71 -631.49c-22.27,-116.52 -92.84,-252.87 -152.94,-326.78 -63.47,-78.06 -132.92,-85.73 -212.26,-52.97 -2.43,1 -80.86,30.13 -78.52,7.46 0.35,-3.42 117.71,-57.54 135.78,-110.42 34.29,-100.29 58.75,-187.75 48.69,-321.56 -1.35,-17.95 -38.01,-116.09 -7.46,-78.52 60.41,74.29 76.38,163.28 131.68,231.28 73.74,90.69 77.7,210.3 139.13,309.81 45.71,74.01 35.79,281.06 -4.1,341.7z"/>
          <path id="5" class="fil2" d="M9739.92 -1314.71c98.18,513.84 -497.37,151.21 -649.45,-35.81 -81.05,-99.67 -572.97,-334.62 -502.1,-409.41 124.51,-131.38 289.53,1.3 440.37,-47.93 147.99,-48.32 186.83,-123.74 319.32,-231.47 203.29,-165.31 330.94,67.74 350.27,222.71 2.47,19.8 0.97,82.6 4.29,109.29 9.36,74.97 90.24,95.63 90.28,180.37 0.04,105.76 -28.19,95.9 -52.98,212.25zm-260.28 147.91c84.54,31.83 68.6,56.99 123.1,12.68l16.97 -13.8 -13.8 -16.97c-9.2,-11.31 32.45,-13.11 33.94,-27.61 1.5,-14.49 -25.8,-19.48 -27.6,-33.94 -2.81,-22.51 15.4,-26.96 -24.43,-64.72 -5.89,-5.58 -42.69,-20.16 -44.58,-20.15 -7.43,0 -54.48,17.9 -64.72,24.44 -12.28,7.84 -43.14,16.3 -33.95,27.6l13.8 16.97 -16.97 13.81 13.8 16.97c11.92,14.65 -25.13,53.85 24.44,64.72zm-183.34 -102.28c40.68,15.32 33.01,27.43 59.24,6.11l8.16 -6.64 -6.65 -8.17c-4.42,-5.44 15.62,-6.3 16.34,-13.28 0.72,-6.97 -12.41,-9.38 -13.28,-16.33 -1.35,-10.83 7.41,-12.98 -11.76,-31.15 -2.83,-2.68 -20.54,-9.69 -21.44,-9.69 -3.58,0 -26.21,8.61 -31.15,11.75 -5.9,3.79 -20.75,7.86 -16.33,13.29l6.64 8.17 -8.17 6.64 6.64 8.17c5.73,7.05 -12.09,25.91 11.76,31.13zm80.66 -145.23c84.55,31.83 68.61,57 123.1,12.68l16.98 -13.8 -13.81 -16.97c-9.19,-11.31 32.46,-13.11 33.95,-27.61 1.49,-14.49 -25.8,-19.48 -27.6,-33.94 -2.81,-22.51 15.39,-26.96 -24.44,-64.72 -5.88,-5.58 -42.68,-20.16 -44.57,-20.15 -7.43,0 -54.48,17.9 -64.73,24.44 -12.27,7.84 -43.13,16.3 -33.94,27.6l13.8 16.97 -16.97 13.81 13.8 16.97c11.92,14.65 -25.13,53.85 24.43,64.72zm-194.26 -27.05c62.22,23.43 50.49,41.95 90.59,9.34l12.5 -10.16 -10.16 -12.49c-6.77,-8.32 23.89,-9.65 24.99,-20.31 1.09,-10.68 -19,-14.34 -20.32,-24.99 -2.08,-16.56 11.32,-19.84 -17.99,-47.63 -4.33,-4.1 -31.41,-14.83 -32.8,-14.82 -5.47,0 -40.09,13.16 -47.64,17.98 -9.03,5.78 -31.75,12 -24.98,20.32l10.16 12.49 -12.49 10.16 10.16 12.48c8.76,10.79 -18.49,39.64 17.98,47.63zm-165.19 -62.3c40.68,15.31 33.01,27.43 59.24,6.1l8.16 -6.63 -6.65 -8.17c-4.42,-5.44 15.62,-6.3 16.34,-13.29 0.72,-6.96 -12.41,-9.37 -13.28,-16.33 -1.35,-10.83 7.41,-12.97 -11.75,-31.14 -2.84,-2.68 -20.54,-9.69 -21.45,-9.69 -3.58,0 -26.22,8.61 -31.15,11.75 -5.91,3.78 -20.76,7.85 -16.33,13.29l6.64 8.16 -8.17 6.65 6.64 8.17c5.74,7.05 -12.09,25.9 11.76,31.13z"/>
          <path id="6" class="fil2" d="M9458.84 -1001.55c-179.29,273.48 -194.04,363.57 -193.98,524.3 0.19,499.47 -236.29,628.79 -712.87,579.69 -72.19,-7.44 147.83,-55.63 262.06,-128.51 254.2,-162.2 85.23,-472.75 22.01,-666.42 -117.86,-361.05 2.82,-828.73 379.75,-365.2 68.84,84.65 -42.9,63.08 -121.98,127.39 -73.05,59.4 -0.62,307.84 21.26,95.5 5.12,-49.72 242.49,-217.57 343.75,-166.75z"/>
          <path id="7" class="fil2" d="M8938.47 -1988.22c77.75,80.85 230.53,75.45 129.44,-48.87 -69.21,-85.11 -86.63,-145.74 -117.88,-214.31 -33.69,-73.88 -63.55,-169.35 -7.46,-78.52 54.84,88.81 203.47,342.08 299.36,264.11 274.5,-223.22 72.79,-557.58 -179.61,-671.65 -174.45,-78.83 -358.78,-41.57 -540.15,-40.1 -94.68,0.77 -155.59,-58.12 -239.86,-86.92 -160.27,-54.79 -218,-67.44 10.63,47.75 123.8,62.38 200.49,118.48 271.75,230.16 83.27,130.48 70.89,816.27 373.78,598.35z"/>
          <path id="8" class="fil2" d="M8851.73 -1297.37c-326.2,83.41 -55.14,495.99 -322.3,713.24 -239.94,195.11 -480.39,277.07 -756.52,248.62 -262.32,-27.03 -566.24,-120.23 -774.78,-328.65 -73.16,-73.11 -216.7,-119.39 -72.19,-54.09 256.58,115.96 953.98,249.82 999.55,-192.47 15.62,-151.65 -61.6,-631.85 31.52,-758.75 176.96,-241.15 195.22,-190.93 443.54,-78.71 72.33,32.68 354.2,269.76 176.26,251.42 -35.73,-3.68 -239.46,5.04 -275.86,111.54 -95.41,279.09 87.96,-37.59 235.57,-22.38 38.49,3.97 425.41,-114.66 315.21,110.23z"/>
          <path id="9" class="fil2" d="M8576.62 -1947.75c-122.74,-95.52 -131.06,-153.46 -173.08,-282.2 -23.43,-71.74 -96.82,-139.24 -104.08,-197.34 -5.2,-41.74 -273.89,-168.47 -322.67,-188.76 -20.26,-8.43 90.97,16.43 136.9,29.66 82.63,23.79 186.08,20.77 239.86,86.92 17.45,21.46 35.36,49.07 55.21,67.89 66.61,63.13 102.16,88.28 117.88,214.31 2.3,18.48 60.98,139.13 76.47,163.39 6.33,9.91 55.9,61.14 55.21,67.89 -6.17,59.91 -62.98,-8.1 -81.7,38.24z"/>
          <path id="10" class="fil2" d="M8303.17 -1915.7c25.45,88.87 -392.73,-142.49 -533.04,-52.95 -64.55,41.2 -126.79,103.11 -186.71,151.83 -41.34,33.62 -127.59,131.9 -84.86,69.01 51.81,-76.25 46.95,-219.29 124.03,-298.24 71.1,-72.84 114.31,-144.71 220.65,-179.43 74.95,-24.46 73.95,-39.03 143.25,-31.89 41.11,4.23 87.18,3.19 119.93,43.46 36.43,44.8 134.67,86.71 141.19,138.95 3.52,28.27 79.29,73.58 82.81,101.84 2.48,19.76 -39.54,111.66 -27.25,57.42z"/>
          <path id="11" class="fil2" d="M9537.91 343.98c110.81,41.71 265.8,51.34 245.09,-114.7 -20.09,-161.18 -80.13,9.23 -14.92,-157.05 18.87,-48.15 80.97,-147.17 -14.92,-157.05 -123.12,-12.68 42.78,-51.41 -31.9,-143.24 -171.97,-211.48 -185.73,142.36 -193.04,213.37 -37.34,362.37 -369.33,413.55 -629.12,370.61 -138.1,-22.82 -334.45,-56.43 -430.86,-44.4 -12.75,1.59 435.03,82.49 511.62,317.08 28.46,87.19 56.76,270.22 80.76,272.69 112.11,11.55 28.29,-128.22 66.77,-195.28 79.6,-138.74 136,53.59 212.26,52.97 102.44,-0.83 37.18,-167.23 155.92,-154.99 177.4,18.27 250.9,952.03 514.97,737.3 95.6,-77.74 -94.16,-248.88 -105.19,-337.41 -26.81,-214.95 224.17,199.18 454.17,-30.96 59.81,-59.85 16.54,-175.22 -70.13,-224.94 -96.11,-55.15 -346.38,96.79 -369.31,-38.05 -12.47,-73.38 266.45,-8.58 265.23,-159.28 -2.08,-256.47 -230.66,-94.4 -341.7,-4.11 -211.15,171.71 -282.02,-220.3 -305.7,-202.56z"/>
          <path id="12" class="fil2" d="M10270.56 -1182.28c-14.36,-531.28 177.94,-201.09 447.64,-420.4 78.5,-63.84 144.19,-179.16 8.4,-232.4 -195.89,-76.8 201.07,-165.07 253.48,-347.11 89.2,-309.77 -365.4,38.45 -257.95,-213.19 27.03,-63.29 163.6,-105.74 189.87,-182.6 111.56,-326.33 -360.94,-270.1 -389.44,6.53 -9.83,95.32 81.8,179.49 -63.61,164.51 -61.17,-6.31 2.14,-155.29 -107.24,-166.56 -267.09,-27.52 146.24,318.53 152.94,326.77 118.59,145.84 -31.25,139.25 -59.32,273.81 -17.64,84.52 73.06,128.44 87.11,211.14 14.76,86.84 -239.52,109.49 -271.57,220.83 -19.73,68.49 -56.44,385.32 9.69,358.67z"/>
         </g>
         <g>
          <path id="13" class="fil2" d="M6111.54 -307.31c-16.09,21.26 -24.21,52.33 -48.28,63.78 -11.62,5.51 -22.3,-6.66 -35.17,-6.56 -29.63,0.23 -37.93,-4.14 -60.67,-25.87 -9.31,-8.89 -10.75,-20.26 -15.86,-32.07 -4.23,-9.77 5.39,-15.98 -3.1,-22.41l-12.75 -9.65 9.66 -12.76 -12.76 -9.66 9.66 -12.75 -12.76 -9.66 9.66 -12.75 -12.76 -9.66c-8.49,-6.43 12.88,-17.01 19.31,-25.51 6.44,-8.5 9.36,-21.71 19.32,-25.51 5.88,-2.24 50.66,1.46 57.57,3.46 7.43,2.15 87.28,62.32 89.29,67.59 3.8,9.96 9.53,13.92 3.1,22.41l-9.66 12.76 -9.65 12.75c-12.64,16.69 8.45,15.35 15.85,32.07z"/>
          <path id="14" class="fil2" d="M5889.45 -13.94c-29.64,66.16 -74,125.54 -64.85,191.69 5.08,36.75 57.69,124.72 98.94,54.84 10.54,-17.85 52.13,-152.17 73.79,-44.47 8.31,41.29 -6.91,95.09 15.5,112.06 90.07,68.18 19,-215.51 147.58,-88.93 18.11,17.83 22.47,57.14 57.22,83.45 40.35,30.54 70.89,17.18 67.23,-9.3 -5.85,-42.31 -93.77,-114.67 -47.2,-176.19 48.44,-63.99 102.95,46 146.86,71.05 42.95,24.51 55.75,-44.48 45.18,-86.19 -15.91,-62.77 -41.1,-32.62 -73.43,-35.52 -60.86,-5.45 81.19,-156.18 -34.45,-166.54 -78.01,-6.98 -77.17,60.31 -96.56,127.55 -8.05,27.89 -82.75,24.59 -99.3,25.16 -39.19,1.34 -48.24,-23.59 -79.99,-0.36 -66.1,48.35 -25.38,-68.29 -83.09,-22.77 -19.9,15.7 -32.38,15.61 -57.57,-3.46 -25.02,-18.94 -9.14,-33 -15.86,-32.07 -23.75,3.29 -11.26,28.31 0,0z"/>
          <path id="15" class="fil2" d="M6188.25 -289.37c50.56,38.28 105.5,81.13 159.62,80.71 49.47,-0.39 92.56,-13.65 99.48,-65.15 6.8,-50.52 -57.96,-23.81 -92.56,-50.01 -50.64,-38.33 -5.63,-70.22 -2.74,-102.4 4.87,-54.49 -17.62,-157.99 -97.04,-123.62 -41.06,17.78 -52.79,85.66 -56.56,127.73 -2.54,28.4 -65.45,24.64 -38.63,51.03 11.63,11.44 136.41,-28.58 81.54,11.56 -7.07,5.18 -45.69,20.14 -59.31,25.33 -33.34,12.71 -45.82,15.48 6.2,44.82z"/>
          <path id="16" class="fil2" d="M5949.3 -159.25c-31.17,142.33 -198,123.32 -251.18,0.47 -4.09,-9.46 -13.59,-38.34 -12.57,-49.65 2.74,-30.69 68.5,-49.57 1.91,-68.78 -81.54,-23.52 -6.58,-118.2 40.53,-119.81 38.5,-1.32 81.2,41.41 118.07,69.32 24.6,18.62 80.65,57.37 20.51,65.69 -14.96,2.07 -40.78,17.8 -52.93,30.16 -24.56,24.95 26.56,26.17 31.89,24.14 30.77,-11.74 34,-21.84 70.51,-26.88 40.23,-5.57 18.55,49.42 33.26,75.34z"/>
          <path id="17" class="fil2" d="M6139.97 -225.59c42.49,27.31 78.36,32.72 79.63,80.35 0.54,20.56 -11.08,58.63 -37.07,62.22 -23.56,3.26 -32.89,-22.82 -56.03,7.75 -28.68,37.88 -70.58,46.9 -112.06,15.5 -31.15,-23.58 -29.95,-53.21 -6.02,-84.82l9.66 -12.76c12.05,-15.92 36.24,-24.32 38.62,-51.02 0.83,-9.12 -13.46,-0.05 3.28,-17.58 18.68,-19.56 28.83,1.99 30.34,12.94 0.85,6.17 -2.86,25.81 -1.73,28.78 6.08,15.94 17.16,6.11 22.41,-3.1 8.4,-14.69 -7.89,-16.07 6.56,-35.16 11.16,-14.74 18.88,-15.81 22.41,-3.1z"/>
          <path id="18" class="fil2" d="M6436.98 -101.07c33.57,122.68 252.54,174.58 234.96,47.45 -3.18,-22.97 -81.03,-85.87 -18.78,-94.48 11.02,-1.52 75.37,-14.49 78.62,-50.84 3.52,-39.23 -46.63,-35.74 -73.43,-35.52 -78.25,0.6 115.74,-166.25 23.13,-163.08 -113.3,3.87 -25.95,-95.1 -15.32,-152.05 13.63,-73 -78.55,-0.56 -102.4,2.74 -42.03,5.81 -15.91,-108.01 -86,-85.18 -30.26,9.86 -61.34,50.68 -96.21,47.56 -114.49,-10.25 21.02,64.04 78.08,69.15 34.88,3.13 108.16,42.67 74.81,86.72 -69.31,91.56 27.68,95.96 -37.62,182.21 -18.41,24.33 55.67,77.95 -5.18,86.37 -38.11,5.27 -55.76,65.84 -54.66,58.95z"/>
          <path id="19" class="fil2" d="M5797.9 67.24c-9.91,22.1 -89.83,134.95 -99.48,65.15 -6.74,-48.72 19.66,-59.82 -41.37,-51.38 -89.24,12.34 -95.73,-5.92 -98.76,-94.83 -1.69,-49.38 -125.58,-4.94 -129.1,-107.77 -0.9,-26.35 34.29,-41.61 37.07,-62.23 4,-29.75 -102.97,-105.46 -48.93,-147.4 52.68,-40.88 66.36,15 92.92,-29.98 67.28,-113.92 142.42,8.45 127.91,16.57 -34.79,19.48 -101.14,75.64 -64.49,111.7 42.36,41.69 -1.86,63.04 23.6,88.1 60.12,59.15 84.75,48.52 114.62,126.9 15.64,41.01 37.96,2.58 59.13,14.66 43.44,24.8 13.32,50.75 26.88,70.51z"/>
          <path id="20" class="fil2" d="M6425.89 231.64c30.41,92.61 109.22,184.97 210.46,159.32 112.71,-28.56 -11.91,-63.18 11.74,-121.53 8.38,-20.66 72.85,5.19 92.75,10.02 35.39,8.58 145.16,-19.57 110.68,-66.7 -86.38,-118.08 133.6,-66.1 88.82,-183.58 -8.03,-21.05 -80.5,16.97 -73.44,-35.53 12.84,-95.5 -34.2,-74.96 -103.77,-48.46 -29.93,11.42 -16.64,85.7 -51.73,121.36 -20.78,21.12 -65.51,31.9 -86.55,34.81 -36.29,5.01 -17.25,9.53 -40.17,39.81 -17.04,22.51 -180.5,49.9 -158.79,90.48z"/>
          <path id="21" class="fil2" d="M6827.63 -166.51c56.97,-15.59 160.81,-61.17 158.96,-130.48 -0.88,-33.19 -49.89,-17.7 -60.67,-25.86 -14.28,-10.81 17.24,-46.08 25.87,-60.68 44.86,-75.98 -111.33,15.47 -86.19,-45.18 9.65,-23.26 48.97,-97.77 -2.74,-102.4 -24.7,-2.21 -72.26,36.21 -60.68,-25.87 16.71,-89.47 -105.05,-54.37 -108.6,-42.08 -13.5,46.83 9.23,69.31 49.12,107.4 31.38,29.98 5.58,58.6 1.19,91.2 -8.03,59.74 88.03,20.14 65.14,99.48 -13.14,45.58 7.08,101.19 18.6,134.47z"/>
          <path id="22" class="fil2" d="M6376.06 284.21c71.58,54.19 50.04,152.51 -12.1,201.52 -46.38,36.58 -48.77,-41.6 -70.34,-13.11 -31.61,41.76 -109.79,127.55 -153.96,84.1 -11.84,-11.65 11.86,-66.85 -28.61,-41.73 -39,24.23 -82.33,65.29 -89.64,12.4 -7.64,-55.2 -4.05,-48.87 -59.13,-14.66 -95.89,59.53 -76.41,-113.74 -13.77,-140.85 55.51,-24.03 102.32,37.14 126.37,5.37 22.39,-29.58 41.03,-79.55 92.92,-29.98 19.31,18.44 25.26,60.85 65.32,59.48 31.03,-1.06 19.51,-39.01 32.25,-55.84 1.28,-1.7 42.35,6.57 56.03,-7.75 21.15,-22.15 -12.68,-41.47 8.29,-63.96 16.98,-18.21 80.55,-32.85 46.37,5.01z"/>
          <path id="23" class="fil2" d="M5854.4 310.67c-1.47,34.61 -2.84,97.56 -54.84,98.94 -91.19,2.43 30.28,-92.21 -71.7,-64.32 -19.62,5.38 -84.84,48.8 -102.4,2.75 -5.37,-14.09 6.66,-32.61 -4.65,-33.62 -30.42,-2.73 -80.53,-5.43 -74.98,-46.73 9.01,-67 10.31,-29.03 -30.16,-52.93 -55.35,-32.7 32.34,-105.02 66.04,-100.49 16.88,2.27 43.41,4.49 52.75,9.83 42.17,24.08 20.09,31.48 83.09,22.77 39.71,-5.49 9.01,41.89 7.75,56.03 -5.49,61.23 63.86,8.21 95.84,32.43 26.6,20.13 42.68,63.3 33.26,75.34z"/>
          <path id="24" class="fil2" d="M6115.9 -564.86c-194.33,-23.43 -165.65,-424.77 26.11,-471.83 80.59,-19.77 -35.55,83.45 48.93,147.4 29.37,22.24 80.68,32.84 103.95,8.47 36.21,-37.9 -100.72,-99.38 -48.75,-187.4 40.49,-68.56 118.62,-133.2 132.92,-29.8 35.54,257.04 16.91,-197.88 126.9,-114.62 29.47,22.32 106.05,-74.67 24.32,-71.88 -123.2,4.22 -156.55,-84.23 -272.04,14.78 -77.97,66.86 -181.33,150.18 -268.1,208.37 -101.95,68.37 -115.02,117.96 -101.75,213.92 11.85,85.71 -81.33,59.59 -65.33,-59.48 12.43,-92.37 -109.9,65.85 -131.01,-38.99 -7.62,-37.87 33.7,-140.54 77.43,-142.03 16.47,-0.56 22.91,41.06 4.83,-6.38 -51.8,-135.91 -201.05,84.77 -195.86,152.7 3.92,51.37 44.63,172.37 127.37,136.56 95.51,-41.34 50.8,30.12 81.18,91.55 21.72,43.91 59.39,37.47 95.84,32.43 37.75,-5.22 46.32,85.22 84.28,113.96 41.67,31.55 142.5,7.56 148.78,2.27z"/>
          <path id="25" class="fil2" d="M6669.21 -1229.5c-6.46,53.61 -48.61,113.69 -8.64,143.94 31.81,24.09 105.88,30.56 89.29,67.6 -23.01,51.31 -61.77,41.34 -102.58,42.73 -40.38,1.39 -38.88,-51.52 -50.85,-78.62 -25.89,-58.66 -111.78,-79.12 -63.41,-128.27 31.8,-32.33 63.89,-35.99 50.01,-92.56 -4.67,-19.01 -45.28,-64.73 -44.47,-73.79 5.09,-56.73 101.29,-20.87 121.54,11.74 14.15,22.81 34.57,27.12 18.95,54.48 -10.07,17.63 -0.94,14.49 -12.94,30.34 -17.76,23.46 4.92,9.16 3.1,22.41z"/>
          <path id="26" class="fil2" d="M6882.95 -1087.76c-67.78,46.49 -62.54,-5.48 -107.05,-30.88 -25.11,-14.34 -37.71,18.5 -65.5,-19.49 -39.9,-54.53 51.53,-81.53 43.81,-137.38 -2.23,-16.15 -22.91,-120.63 -5.84,-124.82 37.74,-9.26 68.97,-16.28 105.5,19.67 7.28,7.15 17.82,46.28 18.95,54.48 4.68,33.85 62.17,66.46 37.91,108.96 -22.27,39.03 -3.58,57.74 -27.78,129.46z"/>
          <path id="27" class="fil2" d="M7119.1 -949.12c-43.47,-50.39 -85.01,-64.35 -133.93,-101.38 -25.99,-19.68 -74.53,-40.29 -55.67,-72.25 7.06,-11.93 37.17,-61.56 35.53,-73.43 -8.58,-62.04 22.98,-92.96 91.37,-41.18 22.37,16.93 43.37,62.93 74.81,86.72 32.06,24.28 48.81,14.76 71.88,24.32 38.32,15.89 34.98,9.27 23.78,48.1 -5.04,17.46 -12.59,28.49 -16.21,47.92 -5.87,31.4 -14.62,45.82 -35.53,73.44 -17.13,22.63 -59.13,9.01 -56.03,7.74z"/>
          <path id="28" class="fil2" d="M7501.47 -950.6c-30.82,140.73 -132.48,109.68 -211.72,120.64 -49.62,6.86 -146.5,59.64 -209.63,11.85 -15.97,-12.09 -54.74,-81.56 -12.57,-49.65 39.08,29.59 119.47,32.94 148.77,2.27 77.97,-81.62 -9.26,-58.07 -4.29,-113.61 6.72,-75 61.79,-23.45 91.19,-1.19 49.78,37.69 -1.91,-27.03 -7.75,-56.02 -12.36,-61.42 -80.32,-155 26.23,-140.67 60.75,8.16 100.95,51.57 108.96,-37.91 2.23,-24.88 43.93,-73.52 64.31,-71.7 83.16,7.45 17.69,287.15 6.5,335.99z"/>
          <path id="29" class="fil2" d="M7586.64 -1036.61c-16.19,-165.62 32.76,-290 -168.02,-347.91 -108.12,-31.18 -114.08,-150.86 -75.81,-217.92 49.66,-87.02 88.44,71.06 166,85.54 166.3,31.03 276.31,66.31 258.02,255.53 -4.92,50.8 -9.87,147.41 -50.37,172.55 -28.98,18 -25.66,40.25 -56.21,47.74 -19.55,4.81 -74.58,15.21 -73.61,4.47z"/>
         </g>
         <path id="30" class="fil2" d="M7077.7 -408.45c92.21,248.72 -8.73,517.76 -133.04,678.88 -13.37,17.32 -386.7,391.5 -312.89,481.5 204.51,249.35 675.18,504.01 1078.5,324.14 303.58,-135.39 -355.01,-500.13 -400.99,-543.85 -63.85,-60.71 -128.03,-294.16 21.01,-179.17 151.3,116.74 268.06,163.25 102.89,-57.38 -83.7,-111.8 192.24,-58.27 295.37,-104.26 256.85,-114.54 -308.8,-289.75 -348.53,-307.98 -102.8,-47.21 -58.71,-143 -136.46,-202.98 -35.83,-27.65 -66.19,-92.17 -125.27,-116.2 -80.93,-32.89 -87.23,39.31 -40.59,27.3z"/>
         <path id="31" class="fil2" d="M8264.58 212.21c109.88,-121.18 136.88,156.45 163.56,208.45 97.71,190.53 -33.68,-91.48 -143.74,-73.87 -42.85,6.86 -140.23,-32.31 -87.29,-66.76 76.26,-49.63 45.2,-118.83 -57.42,-2.49 -119.91,135.91 92.4,95.32 50.39,218.32l-101.52 297.25c-45,131.76 -250.81,-434.57 -5.94,-382.77 2.26,0.48 -22.53,-53.32 -15.74,-85.42 9.43,-44.55 131.39,-145.6 39.56,-141.34 -147.45,6.85 3.69,32.87 -78.67,75.11 -42.94,22.02 -144.04,47.2 -202.76,68.18 -104.29,37.24 -103.55,72.06 -2.67,-10.22 48.46,-39.54 85.16,-353.02 175.66,-213.96 28.08,43.15 204.97,-8.1 198.58,-25.6 -10.93,-29.91 76.6,-94.87 59.47,-98.49 -80.06,-16.94 -101.74,41.26 -216.09,17.06 -85.48,-18.08 -218.21,-14.48 -67.38,-23.91 21.66,-1.36 336.59,-198.37 243.38,-54.75 -57.62,88.78 98.57,1.63 145.07,-46.58 61.56,-63.84 -17.92,-163.96 58.23,-69.78 65.1,80.54 43.39,31.56 -25.87,76.63 -41.48,26.99 -76.92,128.43 -97.52,187.02 -8.28,23.58 -64.99,28.83 -68.44,72.45 -2.23,28.19 59.33,28.76 37.15,75.47z"/>
         <path id="32" class="fil2" d="M6927.99 -1824.84c-13.13,188.72 -236.31,-44.22 -297.75,-72.38 -225.1,-103.21 96.05,59.02 183.46,-35.72 34.02,-36.89 150.53,-70.97 127.07,-1.79 -33.78,99.65 43.95,140.3 53.96,-38.83 11.7,-209.28 -152.16,-20.5 -201.99,-162.31l-120.43 -342.72c-53.38,-151.91 538.81,215.41 279.26,343.53 -2.39,1.19 58.61,32.34 75.41,66.37 23.31,47.21 -15.21,226.29 65.18,156.72 129.08,-111.72 -26.86,-27.23 17.74,-124.53 23.27,-50.73 97.12,-145.95 135.46,-207.02 68.11,-108.45 42.52,-139.56 9.74,7.38 -15.75,70.59 175.19,381.69 -6.53,320.08 -56.39,-19.12 -180.45,154.01 -162.12,165.34 31.34,19.36 -1.73,141 16.43,132.04 84.86,-41.89 62.93,-110.28 184.14,-170.11 90.61,-44.73 208.63,-142.96 78.33,-26.48 -18.71,16.73 -163.91,421.06 -181.97,223.88 -11.16,-121.89 -90.73,69.04 -98.49,146.12 -10.26,102.04 133.6,136.15 -2.98,105.06 -116.77,-26.6 -62,2.37 -31.32,-88.13 18.38,-54.21 -22,-171.73 -45.2,-239.71 -9.35,-27.35 38.42,-72.69 10.36,-114.8 -18.14,-27.2 -74.49,16.33 -87.76,-41.99z"/>
         <path id="33" class="fil2" d="M10125.83 -1572.22c-120.43,-312.28 -19.11,-316.99 112.02,-480.38 181.49,-226.11 -207.62,-83.41 -209.94,-249.63 -1.44,-102.33 137.95,-85.5 21.01,-172.23 -148.13,-109.87 -39.36,-273.18 -216.23,-460.89 -172.58,-183.18 -619.24,-634.13 -900.71,-630.49 -257.88,3.34 293.27,236.29 394.72,311.54 349.95,259.55 -193.56,-39.62 -377.24,-16.85 -76.74,9.51 -264.48,-27.38 -309.36,-4.07 -355.08,184.46 356.68,173.66 399.63,183.71 98.38,23.05 470.05,47.27 375.13,165.54 -28.57,35.59 -303.99,-68.34 -426.24,-53.18 -428.25,53.08 227.62,74.91 328.94,150.06 19.7,14.61 70.66,33.63 95.18,51.81 134.45,99.72 -215.55,-51.96 -59.49,49.79 88,57.39 304.65,222.74 329.62,319.61 21.82,84.63 -258.09,107.94 6.28,211.26 108.7,42.49 302.39,178.23 264.53,327.68 -16.12,63.59 46.41,222.95 79.77,265.76 101.08,129.8 127.3,17.21 92.38,30.96z"/>
         <path id="34" class="fil2" d="M9649.81 -475.43c62.94,-127.12 35.97,-63.19 21.01,-179.17 -8.41,-65.26 -30.75,-75.78 32.2,-92.38 56.9,-14.99 115.46,-86.77 48.31,-138.58 -31.1,-23.99 -8.79,-42.98 -70.69,-35 -30.31,3.91 -121.57,66.67 -170.78,44.08 -1.48,-0.68 -43.31,-62.31 -43.39,5.6 -0.07,54.99 15.28,118.46 22.38,173.57 11.9,92.3 -12.13,50.48 -75.59,97.98 -36.27,27.16 -83.41,123.16 -39.92,203.67 41.06,75.96 -30.21,113.45 19.59,151.88 5.28,4.07 -7.18,27.08 21.7,-2.8 18.76,-19.45 53.88,-81.67 53.9,-95.18 0.04,-46.6 -0.43,-34.1 13.3,-67.89 11.29,-27.79 68.55,-93.56 100.09,-79.08 3.51,1.6 33.28,41.69 67.89,13.3 17.05,-13.97 28.69,-36.68 0,0z"/>
         <path id="35" class="fil2" d="M8603.45 -208.16c24.41,15.53 113.53,90.39 122.47,94.5 42.33,19.43 75.59,-86.26 75.6,-97.98 0.08,-65.03 -12.31,-22.34 -27.3,-40.6 -14.14,-17.25 -23.46,-35.25 -27.29,-40.59 -3.38,-4.71 35.49,-66.88 29.41,-114.08l-13.99 -108.49c-4.14,-32.08 7.09,-67.08 -30.09,-62.29 -35.27,4.55 -15.08,46.06 -37.8,48.99l-21.7 2.8 2.8 21.69c1.45,11.22 -8.75,45.25 -16.1,46.2l-21.7 2.79 2.8 21.7c5.89,45.66 -25.1,47.35 -81.19,54.59 -54.21,6.99 -40.65,2.03 -62.3,30.09 -24.56,31.83 -46.66,22.6 -16.1,46.19 33.59,25.92 60.37,-45 70.69,35 6.46,50.14 23.34,63.16 51.79,59.49z"/>
         <g>
          <path id="36" class="fil2" d="M10895.46 315.59c-3.26,15.72 -14.14,31.71 -9.79,47.16 2.11,7.45 11.86,7.47 16.91,13.34 11.64,13.53 16.91,15.56 35.77,17.26 7.72,0.7 13.45,-3.15 20.82,-5.52 6.11,-1.95 5.11,-8.77 11.39,-7.47l9.43 1.96 1.96 -9.44 9.43 1.96 1.96 -9.43 9.43 1.95 1.95 -9.43 9.44 1.96c6.28,1.3 2.61,-12.58 3.91,-18.86 1.3,-6.29 6.13,-12.85 3.91,-18.87 -1.31,-3.55 -20.73,-22.39 -24.38,-24.73 -3.92,-2.52 -62.83,-14.87 -66.02,-13.7 -6.02,2.22 -10.09,1.2 -11.39,7.48l-1.96 9.43 -1.95 9.43c-2.56,12.34 -10.31,2.25 -20.82,5.52z"/>
          <path id="37" class="fil2" d="M10850.46 532.52c-18.25,39.65 -27.6,83.29 -61.21,105.36 -18.67,12.25 -79.4,23.26 -64.06,-23.13 3.91,-11.85 48.33,-83.93 -9.08,-51.07 -22.02,12.59 -40.38,40.81 -56.95,37.37 -66.6,-13.81 90.18,-94.01 -18.16,-102.14 -15.26,-1.15 -34.8,12.45 -60.5,7.12 -29.84,-6.18 -35.88,-25.33 -22.43,-34.16 21.5,-14.11 89.15,-2.92 98.58,-48.41 9.82,-47.32 -61.64,-28.45 -90.4,-38.43 -28.13,-9.76 -1.93,-42.9 21.17,-54.64 34.76,-17.66 31.08,5.71 45.2,19.22 26.59,25.43 38.64,-98.69 89.15,-50.37 34.08,32.6 3.24,58.88 -19.56,94.32 -9.46,14.7 21.64,47.25 27.94,54.98 14.92,18.3 29.81,12.52 31.86,36.12 4.27,49.13 41.02,-15.55 43.25,28.65 0.76,15.24 5.75,20.87 24.38,24.73 18.49,3.84 18.58,-8.93 20.82,-5.52 7.92,12.07 -8.38,16.32 0,0z"/>
          <path id="38" class="fil2" d="M10856.93 287.92c-37.39,-7.75 -78.58,-15.68 -99.84,-40.38 -19.42,-22.58 -30.48,-47.37 -9.88,-70.91 20.21,-23.11 33.76,16.84 59.35,22.14 37.44,7.77 34.06,-25.27 47.51,-39.33 22.77,-23.8 78.6,-54.62 94.49,-4.99 8.21,25.66 -17.91,57.88 -35.49,76.26 -11.87,12.4 14.76,39.43 -7.83,37.72 -9.79,-0.74 -41.09,-73.16 -37.55,-32.38 0.45,5.26 8.97,28.69 12.01,36.92 7.46,20.16 11.14,26.91 -22.77,14.95z"/>
          <path id="39" class="fil2" d="M10892.62 447.81c-52.17,70.53 22.55,138.63 99.31,114.06 5.91,-1.89 22.77,-9.03 27.5,-13.97 12.82,-13.41 -4.68,-50.7 30.42,-28.12 42.97,27.65 56.19,-43.86 38.26,-65.85 -14.66,-17.98 -50.95,-20.41 -78.22,-26.06 -18.18,-3.77 -57.96,-13.83 -37.9,16.73 4.99,7.6 8.09,25.54 7.3,35.95 -1.58,21.02 -22.39,-1.68 -23.58,-4.9 -6.87,-18.6 -3.57,-24.06 -15.75,-42.61 -13.42,-20.45 -29.76,11.17 -47.34,14.77z"/>
          <path id="40" class="fil2" d="M10847.14 335.08c-29.22,-8.44 -45.88,-22.56 -67.97,-4.26 -9.54,7.9 -22.19,28.25 -13.52,41.46 7.85,11.97 23.37,5.87 18.68,28.47 -5.81,28.01 6.71,50.58 37.38,56.94 23.03,4.78 35.99,-7.5 40.84,-30.87l1.95 -9.44c2.45,-11.77 -3.33,-26.06 7.83,-37.72 3.81,-3.99 5.36,6.08 6.67,-8.46 1.47,-16.21 -12.32,-12.28 -17.88,-8.63 -3.14,2.06 -10.57,11.53 -12.37,12.2 -9.63,3.55 -9.57,-5.36 -7.47,-11.39 3.33,-9.63 10.41,-2.79 13.34,-16.91 2.26,-10.9 -0.32,-14.82 -7.48,-11.39z"/>
          <path id="41" class="fil2" d="M10673.01 249.77c-68.92,33.39 -179.21,-45.31 -114.61,-87.72 11.67,-7.66 71.03,2.71 50.27,-28.92 -3.68,-5.6 -23.29,-39.91 -8.11,-55.79 16.4,-17.14 34.68,6.98 45.21,19.22 30.73,35.71 29.51,-118.35 64.76,-75.11 43.14,52.9 53.4,-25.91 75.01,-53.3 27.69,-35.1 31.37,35.39 39.33,47.51 14.02,21.36 55.27,-35.58 72.69,5.24 7.52,17.62 1.33,47.89 16.56,62.46 50.01,47.84 -37.36,15.85 -62.29,-8 -15.24,-14.57 -62.2,-32.12 -68.95,0.45 -14.05,67.7 -54.48,25.47 -67.71,89.25 -3.73,17.99 -57.39,5.65 -37.09,36.57 12.7,19.37 -7.76,51.37 -5.07,48.14z"/>
          <path id="42" class="fil2" d="M10849.93 606.19c-6.09,13.25 -25.58,94.2 9.88,70.92 24.76,-16.25 19.33,-32.62 39.69,-1.61 29.77,45.35 40.61,41.06 82.12,7.2 23.06,-18.8 52,54.98 100.02,15.83 12.3,-10.03 5.27,-32.04 13.52,-41.47 11.9,-13.6 88.61,4.9 86.21,-36.22 -2.34,-40.08 -33.09,-24.14 -23.23,-54.01 24.99,-75.63 -60.26,-61.21 -58.19,-51.42 4.95,23.49 5.78,75.83 -25.09,73.5 -35.68,-2.69 -27.84,25.82 -49.29,24.21 -50.64,-3.82 -55.58,-19.2 -102.94,-1.68 -24.8,9.16 -16.22,-16.19 -30.08,-21 -28.46,-9.87 -28.29,14.07 -42.62,15.75z"/>
          <path id="43" class="fil2" d="M10526.57 386.63c-54.04,22.91 -127.14,23.78 -155.63,-32.28 -31.7,-62.41 33.37,-19.64 50.45,-53.48 6.05,-11.98 -31.22,-30.97 -41.29,-38.08 -17.92,-12.64 -48.65,-73.56 -13.62,-76.61 87.76,-7.62 -22.97,-86.75 48.03,-113 12.73,-4.7 24.2,43.22 45.21,19.21 38.21,-43.66 47.54,-14.19 63.08,27.85 6.69,18.09 -32.25,41.5 -34.51,71.54 -1.35,17.78 11.49,42.34 18.51,53.03 12.1,18.44 2.51,11.59 -2.13,33.99 -3.45,16.64 48.9,101.59 21.9,107.83z"/>
          <path id="44" class="fil2" d="M10547.89 46.74c-15.51,-32.01 -35.99,-97.14 -3.84,-123.77 15.4,-12.75 27.8,15.61 35.77,17.26 10.55,2.19 14.05,-26.07 17.26,-35.77 16.66,-50.45 37.09,56.6 54.63,21.17 6.72,-13.59 24.92,-60.94 47.51,-39.33 10.79,10.32 12.22,47.11 35.77,17.26 33.94,-43.03 66.27,26.08 62.11,32.56 -15.88,24.68 -35.08,23.28 -68.16,20.29 -26.02,-2.35 -28.77,20.69 -41.81,35.59 -23.9,27.32 -44.01,-31.92 -70.91,9.89 -15.46,24.02 -48.69,36.88 -68.33,44.85z"/>
          <path id="45" class="fil2" d="M10522.48 430.05c-52.93,-10.98 -88.97,37.75 -86.57,85.34 1.8,35.52 38.19,5.63 33.82,26.69 -6.41,30.88 -14.33,100.32 22.87,103.12 9.98,0.76 25.61,-31.86 30.26,-3.56 4.47,27.28 3.02,63.2 29.9,45.55 28.05,-18.41 23.76,-17.53 30.07,21 11.01,67.06 81.84,-10.43 69.31,-49.57 -11.1,-34.68 -57.37,-31.67 -52.5,-55.16 4.54,-21.87 19.8,-50.12 -23.23,-54 -16.01,-1.45 -37.59,12.65 -52.85,-6.05 -11.81,-14.49 9.96,-24.3 12.54,-36.75 0.26,-1.25 -19.76,-16.59 -18.69,-28.47 1.66,-18.36 23.83,-10.68 25.71,-29.1 1.53,-14.92 -17.02,-49.53 -20.64,-19.04z"/>
          <path id="46" class="fil2" d="M10717.19 677.03c-15.12,14.39 -43.11,39.95 -23.13,64.07 35.03,42.31 29.8,-50.26 57.57,7.02 5.33,11.03 11.49,57.8 39.33,47.51 8.51,-3.15 12.14,-15.94 17.08,-11.21 13.29,12.71 34.37,34.35 50.9,15.48 26.8,-30.64 9.07,-16.18 35.94,-7.3 36.76,12.13 34.8,-56.28 19.39,-69.76 -7.72,-6.75 -19.24,-17.9 -25.36,-20.02 -27.62,-9.58 -22.23,3.37 -43.24,-28.65 -13.25,-20.17 -22.56,12.51 -28.47,18.69 -25.59,26.75 -29.03,-25.7 -52.68,-30.6 -19.67,-4.08 -45.61,5.73 -47.33,14.77z"/>
          <path id="47" class="fil2" d="M11010.49 211.57c87.62,78.81 258.21,-93.22 203.56,-198.8 -22.97,-44.37 -23.75,49.18 -86.21,36.22 -21.72,-4.5 -46.86,-23.56 -45.03,-43.77 2.83,-31.43 84.97,6.28 104.28,-52.15 15.03,-45.52 13.38,-106.55 -39.16,-72.07 -130.62,85.74 83,-86.07 1.68,-102.94 -21.79,-4.52 -8.17,-77.67 22.95,-39.51 46.9,57.52 100.22,37.59 101.09,129.18 0.59,61.84 3.77,141.72 11.77,204.11 9.4,73.31 -7.9,98.89 -56.67,130.89 -43.55,28.59 5.21,60.49 52.86,6.05 36.95,-42.23 13.69,75.92 69.58,43.95 20.19,-11.56 50.36,-70.97 33.71,-91.39 -6.27,-7.68 -27.69,5.89 0.98,-4.71 82.14,-30.37 41.23,124.73 8.38,149.3 -24.84,18.58 -95.83,48.07 -112.38,-3.64 -19.1,-59.68 -33.78,-11.09 -73.67,-0.52 -28.51,7.55 -40.52,-12.08 -52.68,-30.6 -12.59,-19.19 -56.98,12.77 -85.06,6.94 -30.81,-6.39 -59.89,-61.61 -59.98,-66.54z"/>
          <path id="48" class="fil2" d="M11092.57 -302.64c-21.75,24.17 -32.28,67.09 -61.84,60.96 -23.52,-4.88 -55.8,-35.9 -66.02,-13.7 -14.15,30.76 5.73,44.38 21.27,63.44 15.37,18.85 38.76,-2.79 55.79,-8.1 36.86,-11.51 80.16,19.32 83.28,-22.08 2.06,-27.23 -9,-43.23 22.15,-59.35 10.46,-5.41 47.28,-5.12 51.07,-9.08 23.7,-24.78 -30.67,-54.18 -53.48,-50.44 -15.95,2.62 -26,-4.93 -32.21,12.99 -4,11.55 -6.19,6.16 -8.63,17.89 -3.6,17.35 -6.1,1.39 -11.38,7.47z"/>
          <path id="49" class="fil2" d="M10943.61 -343.37c5.79,49.15 27.27,26.18 56.42,36.29 16.45,5.71 6.56,24.43 34.79,21.98 40.53,-3.52 16.55,-55.68 44.93,-74.3 8.2,-5.39 63.76,-37.42 58.9,-46.81 -10.76,-20.79 -19.95,-37.72 -50.73,-40.04 -6.12,-0.46 -28.03,10.26 -32.2,13 -17.2,11.29 -54.77,-1.85 -64.42,25.99 -8.87,25.56 -24.76,24.5 -47.69,63.89z"/>
          <path id="50" class="fil2" d="M10787.19 -395.5c40.07,-0.26 62.86,13.04 99.03,20.54 19.22,3.99 47.8,17.83 54.81,-3.38 2.62,-7.93 13.19,-41.25 19.22,-45.2 31.52,-20.7 33.03,-47.26 -17.54,-57.75 -16.54,-3.43 -45.71,5.28 -68.96,0.45 -23.71,-4.92 -26.03,-16.28 -39.5,-22.95 -22.39,-11.08 -18.07,-12.18 -31.23,8.28 -5.92,9.2 -7.93,16.99 -15.31,26.34 -11.9,15.1 -14.97,24.78 -19.21,45.2 -3.47,16.73 19.35,30.38 18.69,28.47z"/>
          <path id="51" class="fil2" d="M10636.35 -569.43c-51.58,69.73 2.78,103.52 29.2,143.78 16.56,25.22 31.01,90.05 77.69,99.74 11.81,2.45 58.67,-7.51 27.49,-13.98 -28.9,-5.99 -62.27,-41.11 -59.97,-66.55 6.1,-67.68 29.99,-18.81 53.2,-43.07 31.34,-32.76 -13.85,-37.3 -35.6,-41.81 -36.8,-7.64 13.02,-9.84 28.48,-18.69 32.74,-18.73 102.09,-25 53.37,-67.63 -27.77,-24.3 -63.37,-25.32 -25.98,-64.41 10.4,-10.87 15.92,-49.05 7.02,-57.57 -36.33,-34.75 -137.19,105.76 -154.9,130.19z"/>
          <path id="52" class="fil2" d="M10641.6 -642.13c81.5,-58.28 118.49,-129.76 224.3,-61.68 56.98,36.66 113.6,-8.06 128.83,-51.98 19.78,-56.99 -67.26,-11.94 -104.55,-41.36 -79.96,-63.1 -139.55,-98.99 -218.08,-15.73 -21.08,22.36 -62.92,62.89 -58.27,91.21 3.32,20.27 -8.08,27.58 0.63,44.4 5.57,10.77 22.65,39.84 27.14,35.14z"/>
         </g>
         <g>
          <path id="53" class="fil2" d="M3343.83 -3810c39.52,61.85 85.27,119.17 135.8,169.32 237.06,235.22 561.04,286.78 858.41,394.99 155.23,56.45 218.83,189.86 338.99,288.35 228.56,187.29 315.2,243.16 11.78,-84.54 -164.32,-177.45 -255.46,-315.92 -303.81,-541.92 -10.67,-49.88 -3.68,-130.1 10.44,-226.2l-1051.61 0z"/>
          <path id="54" class="fil2" d="M4909.55 -3810c9.64,47.39 14.74,91.22 6.13,127.6 -16.99,71.4 344.9,442.41 412.23,505.32 28,26.13 -138.64,-82.32 -205.64,-131.97 -120.56,-89.28 -291.47,-147.46 -339.05,-288.35 -15.41,-45.72 -27.85,-101.77 -48.84,-144.63 -12.05,-24.64 -23.3,-46.91 -33.41,-67.97l208.58 0z"/>
          <path id="55" class="fil2" d="M6092.44 -3810c-91.82,45.88 -183.51,81.16 -308.01,75.99 -137.43,-5.73 -144.69,18.68 -253.6,-35.21 -26.35,-13.06 -54.59,-25.18 -80.76,-40.78l642.37 0z"/>
         </g>
         <path id="56" class="fil2" d="M7777.6 -3810c78.61,101.26 149.97,239.47 189.65,279.27 304.98,305.96 -121,-155.08 -321.64,-53.52 -78.11,39.54 -289.33,24.2 -208.79,-74.57 116,-142.28 13.73,-256.13 -111.88,30.55 -146.77,334.93 236.21,126.32 231.15,388.5l-12.18 633.62c-5.41,280.85 -749.29,-680.73 -246.92,-731.83 4.64,-0.47 -76.09,-88.59 -82.79,-154.45 -9.29,-91.4 162.87,-360.6 -10.94,-295.93 -279.13,103.88 27.29,60.89 -104.96,192.74 -68.95,68.72 -247.74,179.32 -347.64,255.73 -97.44,250.1 -146.36,214.03 -11.42,-17.98 37.52,-64.52 14.49,-306.84 40.02,-452.13l998.34 0z"/>
         <path id="57" class="fil2" d="M2028.82 -3810c8.76,36.5 20.72,74.67 36.68,114.74 165.85,416.71 609.81,1455.87 1072.17,1621.35 423.65,151.6 -329.41,-580.61 -447.5,-770.43 -407.31,-654.76 291.24,185.41 605.91,258.72 131.47,30.63 414.9,207.85 503.05,195.58 697.41,-97.07 -472.8,-512.81 -536.62,-556.08 -146.17,-99.18 -738.31,-367.05 -508.11,-510.26 69.26,-43.07 453.49,301.6 662.92,350.39 733.65,170.93 -324.5,-266.19 -442.44,-455.77 -22.92,-36.85 -94.16,-100.28 -122.69,-146.16 -156.49,-251.54 319.33,219.84 128.83,-48.34 -10.91,-15.37 -23.32,-33.49 -36.72,-53.74l-915.48 0z"/>
         <path id="58" class="fil2" d="M3514.89 1426.03c-246.71,152.07 -530.59,468.62 -467.76,762.14 28.94,135.22 97.12,218.88 169.98,264.87 43.04,27.13 68.45,64 108.95,84.06l96.73 47.9c11.58,5.74 64.82,12.42 84.53,11.74 91.77,-3.16 147.1,42.74 36.15,-12.2 -129.35,-64.06 -223.18,-93.57 -266.71,-312.77 -14.28,-71.93 35.72,-181.12 71.39,-265.79 76.47,-181.57 353.77,-245.12 348.47,-399.61 -1.69,-49.13 37.24,-174.38 47.45,-217.42 15.62,-65.79 -121.64,-247.19 -229.18,37.08z"/>
         <path id="59" class="fil2" d="M2915.16 2393.85c-34.67,204.03 -2.48,469.92 50.68,627.39 56.14,166.28 164.97,221.18 314.62,216.03 4.58,-0.15 150.54,0.06 132.9,35.7 -2.66,5.36 -227.49,22.25 -289.28,97.66 -117.2,143 -210.53,271.05 -275.69,495.88 -8.75,30.16 -8.68,212.93 -35.69,132.89 -53.44,-158.26 -25.26,-313.45 -74.17,-458.33 -65.23,-193.2 1.25,-391.12 -38.47,-591.23 -29.57,-148.85 112.91,-481.21 215.1,-555.99z"/>
         <path id="60" class="fil2" d="M3222.2 3780.59c152.93,-899.73 905.16,56.21 1039.67,454.64 71.69,212.35 732.43,896.37 570.98,975.4 -283.64,138.8 -472.43,-178.72 -749,-190.23 -271.36,-11.29 -380.85,88.29 -663.09,183.56 -433.11,146.22 -499.61,-312.55 -436.7,-577.63 8.05,-33.88 48.8,-135.6 59.65,-181.26 30.44,-128.23 -89.17,-211.33 -37.54,-349.85 64.43,-172.9 104.55,-139.57 216.03,-314.63zm515.64 -83c-118.77,-103.58 -77.38,-135 -193.46,-95.81l-36.17 12.21 12.21 36.16c8.13,24.1 -61.04,1.64 -72.32,24.41 -11.29,22.78 30.29,47.58 24.42,72.32 -9.14,38.51 -41.62,34.68 0.46,120.69 6.21,12.72 57.48,58.97 60.57,60.11 12.14,4.53 99.96,3.98 120.69,-0.46 24.85,-5.34 80.45,-0.33 72.32,-24.42l-12.2 -36.15 36.15 -12.22 -12.21 -36.15c-10.54,-31.22 73.93,-72.7 -0.46,-120.69zm237.28 278.98c-57.15,-49.84 -37.22,-64.96 -93.09,-46.1l-17.38 5.87 5.87 17.4c3.91,11.59 -29.37,0.78 -34.81,11.75 -5.43,10.96 14.57,22.89 11.74,34.79 -4.38,18.53 -20.02,16.69 0.23,58.08 3,6.12 27.66,28.37 29.15,28.92 5.84,2.2 48.08,1.92 58.06,-0.22 11.96,-2.58 38.72,-0.18 34.81,-11.74l-5.87 -17.41 17.4 -5.87 -5.88 -17.41c-5.07,-15.02 35.57,-34.97 -0.23,-58.06zm-220.41 188.19c-118.78,-103.58 -77.38,-135.01 -193.47,-95.81l-36.16 12.21 12.2 36.16c8.14,24.09 -61.03,1.63 -72.32,24.42 -11.28,22.77 30.29,47.57 24.42,72.31 -9.14,38.5 -41.61,34.69 0.46,120.69 6.22,12.71 57.48,58.97 60.58,60.12 12.13,4.53 99.95,3.97 120.69,-0.47 24.85,-5.34 80.44,-0.33 72.32,-24.41l-12.21 -36.17 36.15 -12.2 -12.2 -36.16c-10.54,-31.22 73.92,-72.7 -0.46,-120.69zm301.02 162.69c-87.41,-76.24 -56.95,-99.36 -142.37,-70.52l-26.63 8.99 8.99 26.61c5.98,17.73 -44.92,1.2 -53.23,17.96 -8.3,16.79 22.3,35.02 17.97,53.22 -6.71,28.35 -30.62,25.53 0.35,88.84 4.57,9.34 42.29,43.39 44.57,44.23 8.95,3.34 73.56,2.92 88.83,-0.34 18.29,-3.93 59.21,-0.24 53.23,-17.97l-8.99 -26.63 26.61 -8.97 -8.99 -26.61c-7.76,-22.97 54.4,-53.5 -0.34,-88.81zm232 202.58c-57.15,-49.84 -37.23,-64.97 -93.1,-46.11l-17.38 5.87 5.87 17.41c3.91,11.58 -29.37,0.77 -34.8,11.74 -5.43,10.95 14.56,22.9 11.74,34.79 -4.39,18.54 -20.03,16.7 0.21,58.07 3.02,6.13 27.67,28.38 29.16,28.93 5.84,2.18 48.1,1.91 58.07,-0.21 11.97,-2.57 38.71,-0.17 34.81,-11.75l-5.88 -17.41 17.41 -5.87 -5.88 -17.41c-5.07,-15.02 35.56,-34.97 -0.23,-58.05z"/>
         <path id="61" class="fil2" d="M3872.62 3440.17c459.84,-337.63 538.89,-475.9 636.82,-738.64 304.32,-816.5 769.7,-883.65 1518.72,-512.72 113.45,56.18 -275.56,0.76 -506.7,50.22 -514.42,110.07 -427.64,720.72 -442.43,1075.83 -27.56,662 -510.04,1352.82 -843.42,365.29 -60.89,-180.34 108.58,-76.93 277.07,-133.81 155.61,-52.54 188.76,-502.79 23.49,-169.06 -38.7,78.14 -529.03,207.71 -663.55,62.89z"/>
         <path id="62" class="fil2" d="M4121.39 5370.25c-77.77,-179.58 -330.79,-263.94 -241.37,0.92 61.21,181.33 52.7,291.05 61.96,422.18 10,141.3 0.6,315.57 -35.7,132.89 -35.46,-178.6 -123.91,-683.23 -328.22,-614.25 -498.65,168.34 -480.62,679.91 -251.85,1038.01l1051.63 0c60.66,-412.67 252.9,-1118.82 -256.45,-979.75z"/>
         <path id="63" class="fil2" d="M4684.5 4293.95c584.05,62.63 392.63,-777.04 961.8,-969.2 511.17,-172.56 954.17,-159.89 1388.14,55.03 412.28,204.17 852.2,541.87 1065.94,1009.7 74.98,164.12 281.37,327.31 84.99,132.43 -348.64,-346.01 -1406.88,-990.14 -1751.12,-295.01 -118.03,238.33 -284.68,1070.3 -514.29,1220.94 -436.29,286.22 -435.51,192.99 -772.95,-141.87 -98.29,-97.54 -414.41,-656.94 -134.75,-518.44 56.15,27.8 394.46,137.81 518.91,-14.06 326.17,-397.98 -166.69,7.79 -398.68,-107.09 -60.5,-29.97 -765.25,-72.05 -447.99,-372.43z"/>
         <path id="64" class="fil2" d="M4737.5 5524.78c142.38,230.98 120.63,330.76 110.79,566.81 -3.47,83.41 26.94,176.28 43.65,258.41l-208.56 0c-48.85,-101.84 -70.95,-175.57 -28.56,-354.22 7.52,-31.6 -14.81,-264.58 -25.34,-313.69 -4.3,-20.06 -54.08,-134.03 -48.82,-144.64 46.63,-94.15 98,51.66 156.84,-12.67z"/>
         <path id="65" class="fil2" d="M5204 5639.16c12.62,-160.76 555.02,472.43 838.96,411.65 130.64,-27.98 270.12,-91.19 397.76,-134.28 88.08,-29.74 289.01,-137.77 180.8,-61.04 -131.19,93.01 -210.48,329.77 -384.62,411.81 -58.06,27.36 -110.08,56.73 -162.05,82.7l-642.37 0c-37.98,-22.64 -71.61,-52.6 -88.77,-103.41 -32.21,-95.46 -167.23,-223.87 -146.02,-313.22 11.48,-48.35 -84.71,-168.63 -73.25,-216.97 8.02,-33.81 132.73,-158.4 79.56,-77.24z"/>
         <path id="66" class="fil2" d="M4564 1192.7c-155.68,-135.76 -403.11,-246.02 -470.54,38.01 -65.47,275.7 136.6,33.77 -71.4,265.79 -60.21,67.19 -222.11,191.16 -71.39,265.79 193.49,95.82 -101.29,57.93 -35.24,253.59 152.1,450.54 390.4,-119.43 445.67,-231.02 282.03,-569.51 855.87,-450.7 1254.31,-222.06 211.8,121.52 512.24,296.21 677.15,335.34 21.82,5.19 -660.75,-400.14 -642.84,-830.29 6.67,-159.86 72.03,-476.29 34.31,-494.95 -176.2,-87.26 -124.43,192.31 -228.24,278.45 -214.72,178.23 -189.61,-170.53 -314.62,-216.04 -167.94,-61.1 -162.77,250.66 -349.4,158.24 -278.79,-138.06 170.56,-1709.1 -392.02,-1519.18 -203.66,68.76 2.11,464.22 -33.84,615.65 -87.29,367.68 -244.93,-462.28 -761.22,-226.4 -134.27,61.35 -133.9,276.31 -22.57,410.44 123.47,148.75 625.19,53.05 580.42,287.42 -24.37,127.55 -440.73,-148.48 -530.65,98.59 -153.01,420.46 319.44,294.97 555.99,215.11 449.85,-151.87 326.6,532.09 376.12,517.52z"/>
         <g>
          <path id="67" class="fil2" d="M9767.12 4346.94c39.27,-24.93 71.49,-70.78 117.81,-74.8 22.36,-1.93 32.4,24.48 53.48,32.17 48.58,17.7 59.49,29.9 83.41,79.28 9.79,20.22 5.21,39.69 6.35,62.09 0.96,18.56 -18.56,22.84 -8.61,38.52l14.96 23.56 -23.56 14.96 14.96 23.57 -23.56 14.95 14.96 23.57 -23.56 14.96 14.96 23.56c9.96,15.69 -31.43,19.95 -47.13,29.92 -15.7,9.97 -28.54,29.77 -47.12,29.91 -10.98,0.08 -81.91,-33.28 -92,-40.76 -10.84,-8.05 -104.65,-155.08 -104.72,-164.94 -0.14,-18.59 -7.08,-28.55 8.61,-38.52l23.56 -14.96 23.57 -14.95c30.82,-19.57 -4.46,-30.24 -6.37,-62.09z"/>
          <path id="68" class="fil2" d="M10309.05 4002.88c88.8,-90.05 197.51,-160.06 222.91,-273.75 14.11,-63.17 -18.22,-239.04 -128.28,-149.98 -28.1,22.75 -178,216.92 -147.72,27.67 11.59,-72.56 69.29,-151.21 43.01,-192.6 -105.63,-166.38 -162.5,340.66 -295.45,55.34 -18.73,-40.19 -1.88,-107.1 -42.64,-171.29 -47.32,-74.54 -105.4,-71.32 -115.56,-25.8 -16.24,72.7 83.34,244.61 -30.3,316.76 -118.2,75.05 -140.22,-137.97 -196.71,-205.7 -55.26,-66.25 -118.26,38.69 -126.41,113.32 -12.28,112.3 47.27,78.39 98.35,102.85 96.16,46.01 -227.95,205.75 -45.27,293.2 123.27,58.99 162.92,-51.5 235.63,-149.59 30.16,-40.67 150.25,10.29 177.65,19.45 64.87,21.71 64.46,67.99 130.51,49.38 137.54,-38.71 -0.15,127.09 121.93,87.89 42.09,-13.52 62.44,-5.77 92,40.77 29.34,46.21 -5.2,59.5 6.35,62.08 40.83,9.12 35.67,-39.4 0,0z"/>
          <path id="69" class="fil2" d="M9652.69 4270.83c-59.31,-93.4 -122.97,-196.94 -211.68,-229.27 -81.1,-29.53 -159.61,-34.13 -202.33,45.81 -41.92,78.44 80.22,74.28 120.79,138.2 59.39,93.54 -33.62,118.2 -57.97,169.04 -41.2,86.09 -67.57,268.98 83.2,261.23 77.95,-4 138.55,-107.81 170.37,-174.27 21.47,-44.87 121.99,-0.36 94.25,-59.84 -12.04,-25.79 -240.39,-36.47 -126.22,-68.63 14.71,-4.15 86.96,-5.04 112.38,-5.23 62.26,-0.43 84.33,2.66 17.21,-77.04z"/>
          <path id="70" class="fil2" d="M10122.61 4203.89c137.75,-213.63 398.84,-80.81 410.83,152.42 0.91,17.96 -1.17,70.96 -9.73,88.82 -23.2,48.49 -142.2,39.25 -45.07,111.27 118.93,88.16 -61.34,197.21 -139.32,171.09 -63.73,-21.32 -107.47,-117.21 -150.71,-185.31 -28.84,-45.43 -96.84,-142.95 6.54,-119.87 25.72,5.75 77.51,-4.23 104.91,-17.01 55.36,-25.81 -27.45,-58.97 -37.4,-58.9 -57.45,0.41 -68.89,14.94 -131.64,0.93 -69.15,-15.45 -0.17,-92.1 -8.41,-143.44z"/>
          <path id="71" class="fil2" d="M9770.5 4196.04c-52.8,-70.57 -108.12,-101.28 -81.16,-179.9 11.66,-33.93 53.87,-89.08 98.55,-79.1 40.49,9.04 39.84,57.36 96.3,21.51 69.98,-44.42 143.96,-33.61 192.61,43.02 36.54,57.54 16.5,105.22 -41.89,142.3l-23.57 14.96c-29.41,18.67 -74.06,17.66 -94.24,59.83 -6.9,14.4 21.99,8.3 -16.08,26.75 -42.46,20.58 -45.9,-20.84 -41.7,-39.65 2.37,-10.61 20.41,-40.45 20.38,-46 -0.22,-29.75 -24.32,-20.45 -38.52,-8.61 -22.68,18.9 3.1,31.1 -32.16,53.49 -27.23,17.28 -40.51,14.31 -38.52,-8.6z"/>
          <path id="72" class="fil2" d="M9360.99 3811.37c19.95,-221 -306.31,-439.37 -355.11,-220.85 -8.81,39.47 80.08,189.76 -26.92,165.86 -18.94,-4.23 -132.02,-22.27 -159.52,35.15 -29.67,61.98 54.43,86.85 98.36,102.86 128.27,46.73 -290.57,201.13 -137.26,252.44 187.54,62.77 -15.58,171.25 -67.7,257.86 -66.79,111.01 128.05,48.82 169.04,57.98 72.25,16.13 -39.86,186.24 88.63,191.67 55.47,2.33 131.17,-45.42 186.25,-19.07 180.89,86.59 4.71,-117.48 -85.45,-160.63 -55.1,-26.39 -150.75,-135.71 -69.37,-187.37 169.12,-107.38 13.28,-173.73 172.6,-274.88 44.94,-28.54 -43.44,-161.36 61.16,-138.01 65.49,14.62 131.29,-73.61 125.29,-63.01z"/>
          <path id="73" class="fil2" d="M10508.21 3926.03c29.67,-30.08 229.12,-165.78 202.33,-45.8 -18.7,83.74 -68.63,85.77 36.27,109.2 153.4,34.26 152.85,68.06 103.59,215.24 -27.35,81.73 202.25,84.65 145.29,254.88 -14.61,43.61 -81.44,47.09 -98.55,79.09 -24.68,46.2 103.98,235.18 -9.92,270.77 -111.04,34.69 -99.33,-64.98 -170.17,-7.67 -179.43,145.17 -227.62,-100.66 -198.96,-105.09 68.75,-10.62 211.45,-61.95 173.54,-143.24 -43.81,-93.98 41.49,-101.9 15.15,-158.38 -62.18,-133.37 -108.93,-131 -109.95,-277.32 -0.54,-76.58 -60.46,-27.37 -87.69,-60.03 -55.89,-67.04 9.17,-91.09 -0.93,-131.65z"/>
          <path id="74" class="fil2" d="M9582.03 3274.32c6.77,-169.92 -65.71,-368.95 -246.82,-388.77 -201.64,-22.05 -19.07,110.55 -93.32,191.48 -26.29,28.66 -115.9,-52.92 -145.48,-72.93 -52.61,-35.62 -249.19,-56.55 -221.6,41.51 69.18,245.67 -258.66,26.55 -257.12,245.88 0.28,39.31 141.92,21.36 98.36,102.86 -79.24,148.27 10.19,143.39 140.06,142.49 55.88,-0.4 79.46,-129.91 158.57,-166.79 46.84,-21.85 126.53,-12.19 162.69,-4.11 62.38,13.93 34.01,-5.06 89.94,-40.58 41.59,-26.4 325.45,28.53 314.72,-51.04z"/>
          <path id="75" class="fil2" d="M8682.57 3680.07c-102.63,-9.25 -300.15,1.91 -339.4,116.3 -18.8,54.8 70.74,59.39 83.39,79.3 16.75,26.37 -56.29,64.78 -79.28,83.4 -119.68,96.82 191.38,42.61 113.31,126.41 -29.95,32.13 -139.67,129.93 -57.98,169.04 39.03,18.68 140.2,-15.11 83.4,79.29 -81.87,136.05 138.54,152.94 151.84,135.02 50.64,-68.32 27.19,-118.92 -14.76,-205.51 -33.01,-68.14 26.61,-99.18 53.67,-149.78 49.56,-92.74 -131.6,-86.62 -45.81,-202.34 49.28,-66.48 50.15,-169.71 51.62,-231.13z"/>
          <path id="76" class="fil2" d="M9695.54 3218.78c-83.95,-132.23 11.22,-279.8 142.69,-322 98.11,-31.5 54.33,97.74 106.96,64.33 77.14,-48.98 257.26,-141.52 302.93,-43.56 12.26,26.27 -60.14,102.03 21.32,85.65 78.52,-15.8 174.39,-56.51 154.08,34.41 -21.19,94.88 -23.19,82.34 87.7,60.03 193.04,-38.82 55.53,232.49 -63.4,238.61 -105.38,5.42 -144.57,-123.1 -203.25,-85.84 -54.65,34.69 -115.59,104.99 -170.18,-7.68 -20.31,-41.92 -4.17,-114.86 -70.49,-137.07 -51.36,-17.17 -55.67,51.88 -86.77,71.62 -3.13,1.99 -65.21,-36.58 -96.3,-21.51 -48.07,23.3 -4.57,75.52 -52.55,99.48 -38.88,19.41 -151.7,4.57 -72.74,-36.47z"/>
          <path id="77" class="fil2" d="M10564.31 3493.7c23.52,-55.68 64.16,-157.73 149.98,-128.27 150.54,51.64 -105.71,132.24 77.97,148.84 35.35,3.19 168.44,-28 169.05,57.98 0.18,26.3 -30.78,49.23 -12.91,57.78 48.06,23.02 128.32,57.99 94.06,122.11 -55.6,104.02 -34.56,41.17 17.01,104.91 70.53,87.2 -116.91,151.92 -169.23,123.97 -26.2,-14.01 -68.21,-33.83 -80.22,-48.24 -54.25,-65.09 -13.64,-63.72 -121.92,-87.9 -68.25,-15.24 10.81,-73.96 21.5,-96.3 46.32,-96.73 -99.36,-52.37 -136.87,-111.45 -31.2,-49.14 -31.14,-129.51 -8.42,-143.43z"/>
          <path id="78" class="fil2" d="M9602.93 4765.25c303.34,156.8 11.68,795.3 -330.45,755.27 -143.77,-16.84 109,-114.72 9.92,-270.77 -34.44,-54.26 -111.84,-102.88 -164.74,-77.24 -82.3,39.86 104.02,223.87 -34.61,336.03 -107.99,87.37 -275.11,145.37 -235.42,-32.36 98.67,-441.8 -148.34,313.11 -277.32,109.95 -34.56,-54.44 -218.89,57.37 -83.59,102.65 203.93,68.24 204.5,233.16 453.65,141.76 168.22,-61.72 387.98,-134.86 565.29,-177.06 208.33,-49.57 259.94,-122.64 296.77,-287.59 32.9,-147.32 169.28,-47.8 70.5,137.07 -76.64,143.39 219.79,-40.61 190.36,143.61 -10.65,66.55 -140.79,209.17 -213.19,184.94 -27.25,-9.13 -12.38,-81.09 -11.77,7.47 1.77,253.73 380.3,-15.94 413.26,-130.13 24.91,-86.35 32.18,-308.94 -124.91,-300.89 -181.31,9.33 -64.65,-80.2 -76.85,-199.15 -8.72,-85 -74.21,-97.46 -136.87,-111.45 -64.88,-14.49 -23.72,-167.54 -68.25,-237.68 -48.86,-76.96 -228.31,-99.25 -241.78,-94.43z"/>
          <path id="79" class="fil2" d="M8293.19 5514.12c43.26,-83.68 148.78,-156.17 101.92,-230 -37.31,-58.76 -154.43,-114.52 -104.72,-164.93 68.89,-69.85 126.16,-29.9 193.73,-7.29 66.83,22.36 32.12,107.93 35.15,159.51 6.55,111.67 134.45,197.5 25.42,248.33 -71.69,33.44 -126.39,19.86 -138.19,120.8 -3.97,33.91 34.52,133.41 27.67,147.73 -42.91,89.62 -178.27,-27.67 -191.48,-93.32 -9.23,-45.91 -39.97,-65.42 2.25,-100.6 27.2,-22.69 10.36,-23.11 39.64,-41.7 43.35,-27.53 -2.46,-17.98 8.61,-38.53z"/>
          <path id="80" class="fil2" d="M8030.27 5152.1c139.15,-34.64 98.9,47.1 156.15,115.74 32.3,38.76 72.93,-7.22 95.17,71.81 31.96,113.47 -133.95,101.85 -155.4,197.84 -6.19,27.75 -36.12,211.14 -66.57,207.57 -67.34,-7.87 -122.66,-15.44 -160.45,-96.49 -7.52,-16.13 -0.9,-86.5 2.26,-100.61 12.99,-58.18 -61.08,-146.54 4.49,-201.21 60.2,-50.21 41.06,-92.19 124.35,-194.65z"/>
          <path id="81" class="fil2" d="M7728.85 4781.45c40.32,108.89 99.71,157.05 157.07,247.4 30.49,48.02 97.27,111.31 46.93,152.04 -18.81,15.21 -98.3,77.96 -102.85,98.36 -23.82,106.64 -94.25,137.92 -174.47,11.58 -26.23,-41.31 -32.5,-129.3 -69.37,-187.37 -37.61,-59.24 -70.79,-53.89 -102.65,-83.59 -52.95,-49.35 -51.53,-36.48 -9.54,-93.13 18.89,-25.46 37.95,-38.89 55.72,-68.44 28.74,-47.73 51.84,-65.96 102.86,-98.35 41.8,-26.54 102.15,21.33 96.3,21.5z"/>
          <path id="82" class="fil2" d="M7102.98 4550.69c136.21,-211.23 283.43,-98.48 419.62,-68.06 85.29,19.05 275.84,-8.14 349.87,108.47 18.73,29.5 39.72,166.7 -9.73,88.82 -45.83,-72.19 -175.18,-126.71 -241.78,-94.44 -177.21,85.86 -20.28,100.57 -62.28,188.31 -56.72,118.49 -115.29,0.64 -149.78,-53.67 -58.38,-91.96 -13.35,45.35 -21.51,96.3 -17.24,107.93 36.77,302.33 -128.65,213.92 -94.31,-50.4 -133.54,-145.86 -201.21,-4.5 -18.82,39.32 -116.65,93.39 -148.86,77.98 -131.38,-62.9 146.23,-480.13 194.31,-553.13z"/>
          <path id="83" class="fil2" d="M6911.31 4639.31c-74.54,280.59 -230.41,454.04 62.44,671.13 157.7,116.91 94.45,316.16 -8.99,402.42 -134.25,111.95 -101.23,-170.08 -219.16,-241.05 -252.89,-152.14 -411.19,-276.9 -265.89,-575.02 39.02,-80.03 106.05,-234.92 187.57,-251.32 58.35,-11.74 66.49,-50.13 120.99,-43.75 34.89,4.08 131.18,20.63 123.04,37.59z"/>
         </g>
         <path id="84" class="fil2" d="M8126.28 3923.02c0.97,-462.79 330.04,-840.97 631.49,-1028.49 32.41,-20.16 870.83,-404.07 805.08,-596.18 -182.2,-532.29 -796.19,-1235.58 -1565.11,-1187.58 -578.76,36.16 275.24,1033.98 323.72,1133.48 67.33,138.18 29.86,558.9 -143.61,280.03 -176.1,-283.07 -338.58,-430.31 -203.17,31.05 68.63,233.79 -349.74,-22.01 -546.36,-9.73 -489.67,30.56 328.01,661.91 381.82,715.95 139.25,139.87 8.76,269.53 99.26,415 41.7,67.05 51.97,191.01 133.88,266.31 112.21,103.13 166.54,-11.06 83,-19.84z"/>
         <path id="85" class="fil2" d="M6564.88 2184.68c-253.51,131.05 -128.32,-339.2 -140.2,-440.46 -43.51,-371.02 -0.75,170.06 189.88,208.4 74.22,14.93 209.5,138.33 101.96,162.35 -154.93,34.61 -146.35,166.66 92.34,39.1 278.86,-149.03 -92.9,-212.17 50.77,-387.58l347.23 -423.93c153.91,-187.91 144.9,863.26 -223.73,629.25 -3.4,-2.16 4.3,100.88 -26.39,149.22 -42.56,67.06 -303.53,157.84 -150.86,206.89 245.2,78.73 14.03,-55.97 174.4,-74.79 83.61,-9.8 264.23,10.7 372.99,12.23 193.18,2.74 213.2,-54.64 -1.87,18.34 -103.31,35.06 -354.49,525.06 -417.59,242.58 -19.59,-87.67 -339.97,-111.79 -340.2,-79.28 -0.38,55.56 -183.06,108.34 -157.27,124.71 120.52,76.51 191.46,-5.38 363.61,103.91 128.69,81.68 347.82,156.75 95.55,80.17 -36.25,-10.99 -671.14,118.95 -431.21,-58.94 148.33,-109.97 -160.11,-62.8 -265.52,-12.36 -139.54,66.8 -70.7,278.93 -137.73,78.55 -57.29,-171.34 -51.68,-78.04 89.01,-109.47 84.27,-18.82 204.06,-163.01 273.47,-246.21 27.9,-33.5 123.8,-7.48 156.06,-76.66 20.83,-44.72 -79.45,-83.2 -14.7,-146.02z"/>
         <path id="86" class="fil2" d="M7507.13 6329.36c71.47,-157.25 166.54,-90.58 252.87,20.64l-998.35 0c17.63,-100.29 59.9,-153.44 165.85,-67.05 80.52,65.63 388.88,-141.68 365.84,-171.38 -39.42,-50.74 88.81,-229.41 53.67,-225.83 -164.26,16.71 -170.11,141.87 -404.73,165.74 -175.37,17.85 -428.18,106.42 -144.17,-4.49 40.79,-15.94 524.71,-588.25 433.97,-254.96 -56.1,206.05 190.4,-57.49 250.1,-178.74 78.99,-160.53 -135.33,-304.02 68.94,-169.9 174.65,114.68 102.78,33.93 -2.57,163.14 -63.09,77.38 -68.77,294.11 -72.31,419.37 -1.4,50.4 -107.14,95.37 -86.95,181.31 13.07,55.53 131.72,18.75 117.84,122.15z"/>
         <path id="87" class="fil2" d="M2433.6 3968.26c-1.28,604.41 -169.88,550.63 -487.88,748.45 -440.09,273.77 286.44,268.46 184.78,552.49 -62.57,174.87 -279.72,61.23 -143.61,280.03 156.23,251.14 -60.19,448.24 24.33,800.77l915.46 0c-118.57,-179.13 -317.8,-529.07 -299.25,-690.72 18.01,-157.2 490.32,-26.12 123.76,-363.04 -150.71,-138.54 -381.17,-487.47 -224.47,-718.48 66.69,-98.3 65.58,-407.39 38.24,-500.52 -82.87,-282.35 -197.17,-106.9 -131.36,-108.98z"/>
         <path id="88" class="fil2" d="M3881.36 2463.77c-180.41,169.39 -97.33,81.36 -143.62,280.04 -26.05,111.8 4.03,142.62 -108.98,131.36 -102.13,-10.2 -241.62,71.39 -163.47,197.03 36.2,58.17 -11.84,75.62 94.2,100.32 51.92,12.09 239.36,-34.81 306.01,32.11 2,2.02 32.8,128.26 74.34,17.32 33.65,-89.83 47.28,-202.94 69.28,-297.36 36.84,-158.12 50.62,-75.11 183.32,-114.04 75.85,-22.26 211.45,-150.43 189.44,-308.54 -20.77,-149.2 118.58,-167.01 60.63,-260.19 -6.16,-9.88 28.24,-39.9 -37.18,-8.66 -42.53,20.34 -137.89,100.61 -146.14,122.7 -28.5,76.13 -20.1,55.98 -63.15,102.85 -35.41,38.53 -169.11,111.12 -211.83,68.21 -4.76,-4.76 -28.98,-88.44 -102.85,-63.15 -36.39,12.44 -69.26,42.46 0,0z"/>
         <path id="89" class="fil2" d="M5754.63 2665.08c-30.43,-40.26 -130.45,-216.97 -142.56,-229.14 -57.32,-57.57 -176.15,94.89 -183.31,114.04 -39.8,106.24 6.5,44.02 19.85,83 12.59,36.82 16.86,71.93 19.85,83 2.65,9.76 -98.8,87.67 -117.63,168.53l-43.3 185.84c-12.82,54.97 -52.52,105.33 11.18,120.17 60.41,14.08 52.74,-66.09 91.66,-57.02l37.18 8.66 8.65 -37.17c4.47,-19.21 41.9,-68.61 54.49,-65.68l37.17 8.66 8.66 -37.16c18.23,-78.22 69.91,-62.09 166,-39.71 92.87,21.64 67.67,21.47 120.17,-11.19 59.56,-37.05 90.06,-8.49 54.48,-65.67 -39.09,-62.85 -126.11,36.72 -94.18,-100.33 20.01,-85.9 0.37,-117.47 -48.36,-128.83z"/>
         <path id="90" class="fil2" d="M4784.99 -910.76c-283.98,-349.47 -1146.15,-528.75 -577.26,-1240.04 96.78,-121 358.03,-104.22 491.74,-64.14 173.54,52.03 189.89,200.68 342.08,-42.76 390.43,-624.56 1137.26,551.21 577.26,940.72 -234.36,163 -447.09,413.35 -406.22,726.92 18.45,141.63 -19.04,324.41 -85.52,406.22 -225.35,277.36 -126.65,-461.79 -342.08,-726.92z"/>
         <path id="91" class="fil2" d="M5447.77 -2984.62c-181.96,13.99 -192.42,123.08 -192.42,277.94 0,254.96 743.04,180.73 743.04,764.4 0,110.46 19.66,485.26 48.02,411.5 91.31,-237.39 108.92,-619.01 256.56,-855.2 59.42,-95.05 277.94,-347.28 277.94,-470.36 0,-423.47 -207.79,-525.54 -534.5,-427.6 -199.2,59.72 36.76,391.56 -128.28,342.08 -150.96,-45.25 -260.77,-64.14 -470.36,-42.76z"/>
         <path id="92" class="fil2" d="M4058.07 -632.82c-414.1,-241.55 -176.53,-1304.49 -641.4,-1197.28 -93.56,21.58 -95.86,86.27 -106.9,171.04 -17.81,136.64 -410.39,-286.57 -448.98,-320.7 -998.59,-883.43 -554.11,450.75 -171.04,833.82 198.71,198.71 563.56,264.09 833.82,299.32 170.91,22.27 636.64,498.85 534.5,213.8z"/>
         <path id="93" class="fil2" d="M1920.07 -3348.08c92.38,400.33 219.95,1401.3 0,1753.16 -88.31,141.26 -107.94,380.46 -128.28,577.26 -14.15,136.99 68.01,569.52 213.8,277.94 102.96,-205.94 9.5,-106.34 213.8,21.38 303.79,189.9 11.53,-426.28 -42.76,-513.12 -217.82,-348.46 -21.38,-836.5 -21.38,-1197.28 0,-215.98 -64.14,-398.21 -64.14,-577.26 0,-100.97 -59.9,-179.63 -85.52,-277.94 -46.28,-177.51 -146.07,-84.32 -85.52,-64.14z"/>
         <path id="94" class="fil2" d="M11169.24 3226.3c-47.22,-205.97 -179.89,-427.92 -233.09,-649.49 -61.32,-255.37 -213.67,-1194.58 -490.61,-1102.88 -207.67,68.76 -247.16,108.13 -215.6,328.53 24.04,167.84 -57.24,95.75 -227.92,120.19 -208.47,29.85 -333.25,345.23 -144.47,458.43 286.3,171.65 674.86,-33.17 899.7,291.39 73.4,105.94 196.44,264.87 230.54,387.21 48.39,173.58 275.2,268.23 181.45,166.62z"/>
         <path id="95" class="fil2" d="M11348.65 -3497.74c175.7,761.36 -182.35,1280.65 -256.56,1924.2 -24.16,209.53 -18.2,525.06 235.18,427.6 91.4,-35.16 194.07,785.18 277.94,919.34 92.17,147.46 249.04,-696.23 149.66,-855.2 -116.24,-185.96 -54.93,-1072.41 -85.52,-1368.32 -24.09,-233.13 -20.9,-464.88 -42.76,-705.54 -10.34,-113.92 -256.56,-666.69 -277.94,-342.08z"/>
         <path id="96" class="fil2" d="M9659.63 -3433.61c336.03,164.21 673,45.28 1026.24,45.28 140.94,0 203.73,-37.3 299.32,30.18 223.75,157.94 -205.66,101.4 -277.94,196.2 -9.21,12.07 144.79,63.8 64.14,120.73 -86.88,61.33 -113.41,120.74 -320.7,120.74 -183.24,0 -178.97,-49.84 -277.94,-135.83 -80.63,-70.04 -210.75,-160.48 -299.32,-211.29 -58.61,-33.61 -435.38,-150.92 -213.8,-166.01z"/>
         <path id="97" class="fil2" d="M11313.02 6127.45c77.87,80.99 230.9,75.58 129.64,-48.94 -69.32,-85.25 -86.76,-145.98 -118.06,-214.65 -33.74,-74 -63.66,-169.63 -7.47,-78.65 54.92,88.95 203.79,342.63 299.83,264.53 274.94,-223.57 72.91,-558.47 -179.9,-672.72 -174.73,-78.96 -359.35,-41.64 -541.01,-40.17 -94.83,0.78 -155.83,-58.21 -240.24,-87.05 -160.52,-54.88 -218.34,-67.55 10.65,47.82 124,62.48 200.81,118.67 272.19,230.53 83.39,130.69 71,817.57 374.37,599.3z"/>
         <g>
          <path id="98" class="fil2" d="M11409.09 4733.97c-2.27,10.94 -9.84,22.08 -6.81,32.83 1.47,5.19 8.25,5.2 11.77,9.29 8.1,9.41 11.77,10.83 24.9,12.01 5.37,0.49 9.36,-2.2 14.49,-3.84 4.26,-1.36 3.56,-6.11 7.93,-5.2l6.56 1.36 1.37 -6.57 6.56 1.36 1.36 -6.56 6.57 1.36 1.36 -6.57 6.57 1.37c4.37,0.9 1.81,-8.76 2.72,-13.13 0.91,-4.38 4.27,-8.94 2.72,-13.13 -0.91,-2.48 -14.43,-15.59 -16.97,-17.22 -2.73,-1.75 -43.74,-10.35 -45.96,-9.53 -4.19,1.54 -7.02,0.83 -7.92,5.2l-1.36 6.56 -1.37 6.57c-1.78,8.59 -7.17,1.56 -14.49,3.84z"/>
          <path id="99" class="fil2" d="M11377.77 4884.97c-12.7,27.6 -19.21,57.98 -42.61,73.34 -13,8.53 -55.27,16.19 -44.59,-16.1 2.72,-8.25 33.64,-58.42 -6.32,-35.55 -15.32,8.77 -28.11,28.41 -39.64,26.02 -46.36,-9.62 62.77,-65.44 -12.64,-71.1 -10.62,-0.8 -24.23,8.67 -42.12,4.96 -20.76,-4.31 -24.97,-17.64 -15.61,-23.79 14.97,-9.82 62.06,-2.03 68.62,-33.7 6.84,-32.93 -42.91,-19.8 -62.93,-26.75 -19.57,-6.79 -1.34,-29.86 14.74,-38.03 24.2,-12.29 21.63,3.98 31.47,13.38 18.5,17.7 26.89,-68.7 62.05,-35.06 23.72,22.69 2.25,40.99 -13.62,65.65 -6.58,10.23 15.07,32.9 19.45,38.27 10.39,12.74 20.75,8.72 22.18,25.15 2.97,34.19 28.55,-10.82 30.1,19.94 0.54,10.61 4.01,14.52 16.97,17.21 12.88,2.68 12.94,-6.21 14.5,-3.84 5.51,8.41 -5.83,11.37 0,0z"/>
          <path id="100" class="fil2" d="M11382.27 4714.71c-26.02,-5.4 -54.7,-10.92 -69.49,-28.11 -13.53,-15.72 -21.22,-32.97 -6.88,-49.36 14.07,-16.08 23.5,11.72 41.31,15.42 26.06,5.4 23.71,-17.59 33.07,-27.38 15.85,-16.57 54.72,-38.02 65.78,-3.48 5.71,17.86 -12.47,40.29 -24.71,53.08 -8.26,8.64 10.27,27.45 -5.45,26.26 -6.82,-0.51 -28.6,-50.92 -26.14,-22.54 0.32,3.66 6.25,19.98 8.37,25.71 5.18,14.02 7.75,18.72 -15.86,10.4z"/>
          <path id="101" class="fil2" d="M11407.12 4826.01c-36.32,49.09 15.69,96.5 69.13,79.39 4.11,-1.32 15.85,-6.28 19.13,-9.72 8.93,-9.33 -3.25,-35.3 21.18,-19.58 29.91,19.25 39.12,-30.52 26.63,-45.83 -10.2,-12.52 -35.46,-14.21 -54.44,-18.14 -12.66,-2.63 -40.35,-9.63 -26.39,11.64 3.48,5.29 5.63,17.78 5.09,25.02 -1.1,14.64 -15.59,-1.16 -16.42,-3.4 -4.78,-12.95 -2.49,-16.75 -10.96,-29.67 -9.34,-14.23 -20.72,7.78 -32.95,10.29z"/>
          <path id="102" class="fil2" d="M11375.46 4747.54c-20.34,-5.88 -31.94,-15.7 -47.32,-2.97 -6.63,5.5 -15.44,19.67 -9.41,28.86 5.47,8.34 16.27,4.09 13.01,19.82 -4.04,19.5 4.67,35.21 26.02,39.64 16.03,3.32 25.05,-5.22 28.42,-21.5l1.36 -6.56c1.71,-8.2 -2.31,-18.15 5.45,-26.26 2.65,-2.78 3.73,4.23 4.65,-5.89 1.02,-11.29 -8.58,-8.55 -12.45,-6 -2.19,1.43 -7.36,8.02 -8.61,8.48 -6.71,2.48 -6.66,-3.73 -5.2,-7.93 2.32,-6.7 7.25,-1.94 9.29,-11.76 1.57,-7.59 -0.23,-10.32 -5.21,-7.93z"/>
          <path id="103" class="fil2" d="M11254.25 4688.16c-47.98,23.24 -124.75,-31.55 -79.78,-61.06 8.12,-5.34 49.44,1.88 34.99,-20.14 -2.56,-3.89 -16.21,-27.78 -5.64,-38.83 11.41,-11.93 24.14,4.86 31.46,13.37 21.4,24.86 20.55,-82.37 45.09,-52.27 30.03,36.82 37.17,-18.04 52.21,-37.11 19.28,-24.43 21.84,24.64 27.37,33.07 9.76,14.87 38.48,-24.77 50.61,3.65 5.23,12.27 0.92,33.34 11.52,43.48 34.82,33.3 -26,11.03 -43.35,-5.57 -10.61,-10.14 -43.3,-22.36 -48,0.31 -9.78,47.13 -37.92,17.74 -47.13,62.13 -2.6,12.52 -39.95,3.93 -25.83,25.46 8.85,13.48 -5.39,35.75 -3.52,33.51z"/>
          <path id="104" class="fil2" d="M11377.4 4936.26c-4.24,9.22 -17.81,65.56 6.88,49.36 17.23,-11.31 13.45,-22.71 27.62,-1.12 20.73,31.57 28.28,28.58 57.17,5.01 16.05,-13.08 36.2,38.27 69.62,11.02 8.56,-6.99 3.67,-22.3 9.41,-28.86 8.29,-9.47 61.68,3.4 60.01,-25.22 -1.63,-27.9 -23.04,-16.8 -16.17,-37.59 17.4,-52.65 -41.94,-42.62 -40.51,-35.8 3.45,16.36 4.03,52.78 -17.46,51.16 -24.84,-1.87 -19.38,17.98 -34.31,16.85 -35.25,-2.65 -38.68,-13.36 -71.66,-1.17 -17.25,6.38 -11.28,-11.26 -20.93,-14.61 -19.81,-6.87 -19.7,9.79 -29.67,10.97z"/>
          <path id="105" class="fil2" d="M11152.31 4783.42c-37.61,15.95 -88.5,16.55 -108.33,-22.47 -22.07,-43.44 23.23,-13.67 35.12,-37.23 4.21,-8.34 -21.73,-21.55 -28.74,-26.5 -12.47,-8.8 -33.87,-51.21 -9.48,-53.33 61.08,-5.31 -15.99,-60.39 33.43,-78.66 8.86,-3.27 16.85,30.08 31.47,13.38 26.6,-30.4 33.09,-9.89 43.91,19.38 4.66,12.59 -22.45,28.88 -24.02,49.8 -0.94,12.38 8,29.47 12.88,36.91 8.43,12.83 1.75,8.07 -1.48,23.66 -2.41,11.58 34.04,70.72 15.24,75.06z"/>
          <path id="106" class="fil2" d="M11167.15 4546.83c-10.79,-22.28 -25.05,-67.62 -2.67,-86.15 10.72,-8.88 19.35,10.86 24.9,12.01 7.35,1.52 9.78,-18.15 12.01,-24.9 11.6,-35.12 25.83,39.4 38.03,14.74 4.68,-9.46 17.35,-42.42 33.07,-27.38 7.51,7.18 8.51,32.79 24.9,12.01 23.63,-29.95 46.13,18.15 43.24,22.66 -11.06,17.18 -24.42,16.21 -47.45,14.13 -18.11,-1.63 -20.03,14.4 -29.1,24.78 -16.64,19.01 -30.64,-22.23 -49.36,6.88 -10.76,16.72 -33.89,25.67 -47.57,31.22z"/>
          <path id="107" class="fil2" d="M11149.47 4813.65c-36.85,-7.65 -61.94,26.27 -60.26,59.4 1.25,24.73 26.58,3.91 23.54,18.58 -4.46,21.49 -9.97,69.83 15.92,71.78 6.95,0.52 17.83,-22.18 21.06,-2.48 3.11,18.99 2.1,43.99 20.81,31.71 19.53,-12.82 16.54,-12.2 20.94,14.61 7.66,46.68 56.96,-7.25 48.24,-34.5 -7.72,-24.14 -39.94,-22.04 -36.54,-38.4 3.15,-15.22 13.78,-34.89 -16.17,-37.59 -11.15,-1 -26.17,8.81 -36.79,-4.21 -8.22,-10.08 6.93,-16.91 8.73,-25.58 0.18,-0.87 -13.76,-11.55 -13.01,-19.82 1.15,-12.78 16.58,-7.43 17.9,-20.25 1.06,-10.38 -11.85,-34.48 -14.37,-13.25z"/>
          <path id="108" class="fil2" d="M11285 4985.57c-10.52,10.01 -30.01,27.8 -16.1,44.59 24.39,29.45 20.75,-34.98 40.07,4.89 3.72,7.67 8,40.23 27.38,33.07 5.93,-2.19 8.45,-11.1 11.89,-7.8 9.26,8.84 23.93,23.91 35.43,10.77 18.66,-21.32 6.32,-11.26 25.02,-5.08 25.59,8.45 24.22,-39.18 13.5,-48.56 -5.37,-4.7 -13.39,-12.46 -17.65,-13.93 -19.24,-6.67 -15.48,2.34 -30.11,-19.95 -9.22,-14.04 -15.7,8.71 -19.81,13.01 -17.81,18.62 -20.21,-17.88 -36.67,-21.3 -13.7,-2.84 -31.75,3.99 -32.95,10.29z"/>
          <path id="109" class="fil2" d="M11489.17 4661.56c60.99,54.86 179.73,-64.89 141.69,-138.38 -15.99,-30.88 -16.53,34.24 -60.01,25.22 -15.12,-3.14 -32.62,-16.41 -31.34,-30.47 1.97,-21.88 59.14,4.37 72.58,-36.3 10.47,-31.69 9.32,-74.18 -27.26,-50.17 -90.92,59.68 57.78,-59.92 1.17,-71.66 -15.17,-3.15 -5.68,-54.06 15.98,-27.5 32.65,40.04 69.76,26.17 70.37,89.92 0.4,43.05 2.62,98.65 8.19,142.08 6.54,51.03 -5.5,68.83 -39.45,91.11 -30.31,19.9 3.63,42.11 36.79,4.21 25.73,-29.4 9.53,52.85 48.44,30.59 14.05,-8.04 35.06,-49.39 23.47,-63.61 -4.37,-5.35 -19.28,4.1 0.68,-3.28 57.17,-21.14 28.7,86.83 5.83,103.93 -17.29,12.93 -66.7,33.45 -78.22,-2.53 -13.3,-41.55 -23.52,-7.73 -51.29,-0.37 -19.84,5.25 -28.2,-8.41 -36.66,-21.3 -8.77,-13.35 -39.67,8.89 -59.21,4.83 -21.45,-4.44 -41.69,-42.88 -41.75,-46.32z"/>
          <path id="110" class="fil2" d="M11546.3 4303.63c-15.14,16.83 -22.47,46.7 -43.04,42.43 -16.38,-3.4 -38.85,-24.99 -45.96,-9.53 -9.85,21.41 3.99,30.89 14.81,44.16 10.69,13.12 26.98,-1.95 38.83,-5.65 25.65,-8 55.8,13.46 57.97,-15.36 1.43,-18.95 -6.27,-30.09 15.42,-41.31 7.28,-3.77 32.91,-3.57 35.55,-6.32 16.5,-17.26 -21.36,-37.72 -37.23,-35.12 -11.1,1.82 -18.1,-3.43 -22.42,9.05 -2.79,8.04 -4.31,4.29 -6.01,12.45 -2.5,12.07 -4.24,0.97 -7.92,5.2z"/>
          <path id="111" class="fil2" d="M11442.61 4275.27c4.03,34.22 18.99,18.23 39.27,25.27 11.46,3.97 4.57,17 24.22,15.3 28.21,-2.45 11.52,-38.76 31.27,-51.72 5.71,-3.75 44.39,-26.05 41,-32.59 -7.48,-14.46 -13.88,-26.25 -35.31,-27.86 -4.26,-0.33 -19.51,7.14 -22.41,9.04 -11.98,7.86 -38.12,-1.29 -44.84,18.09 -6.18,17.79 -17.24,17.06 -33.2,44.47z"/>
          <path id="112" class="fil2" d="M11333.73 4238.99c27.89,-0.18 43.76,9.08 68.93,14.3 13.38,2.78 33.27,12.41 38.15,-2.36 1.83,-5.52 9.18,-28.71 13.38,-31.46 21.95,-14.41 23,-32.89 -12.21,-40.2 -11.51,-2.38 -31.82,3.67 -48,0.32 -16.5,-3.43 -18.12,-11.34 -27.5,-15.98 -15.58,-7.71 -12.57,-8.48 -21.74,5.76 -4.11,6.41 -5.52,11.83 -10.65,18.34 -8.28,10.51 -10.42,17.25 -13.37,31.46 -2.42,11.65 13.46,21.15 13.01,19.82z"/>
          <path id="113" class="fil2" d="M11228.73 4117.92c-35.91,48.54 1.93,72.06 20.33,100.08 11.52,17.56 21.58,62.69 54.08,69.43 8.22,1.7 40.83,-5.23 19.13,-9.73 -20.11,-4.17 -43.34,-28.61 -41.75,-46.32 4.26,-47.12 20.88,-13.1 37.04,-29.98 21.81,-22.81 -9.64,-25.97 -24.78,-29.11 -25.62,-5.31 9.06,-6.85 19.82,-13.01 22.79,-13.04 71.07,-17.4 37.15,-47.07 -19.33,-16.92 -44.11,-17.63 -18.08,-44.84 7.23,-7.57 11.08,-34.14 4.88,-40.07 -25.28,-24.19 -95.49,73.61 -107.82,90.62z"/>
          <path id="114" class="fil2" d="M11232.38 4067.32c56.73,-40.57 82.49,-90.33 156.14,-42.94 39.66,25.52 79.07,-5.61 89.68,-36.18 13.76,-39.67 -46.82,-8.31 -72.78,-28.79 -55.66,-43.92 -97.14,-68.91 -151.81,-10.95 -14.67,15.56 -43.79,43.78 -40.56,63.49 2.32,14.11 -5.62,19.2 0.44,30.9 3.88,7.5 15.77,27.74 18.89,24.47z"/>
         </g>
         <g>
          <g>
           <path id="115" class="fil2" d="M11853.33 270.72c-20.47,14.67 -35.29,33.3 -38.53,56.63 -3.19,22.98 20.68,26.36 38.53,29.67l0 -86.3zm0 128.75c-7.16,7.44 -14.45,14.28 -18.38,18.96 -24.53,29.24 -6.82,33.73 18.38,33.94l0 -52.9z"/>
           <path id="116" class="fil2" d="M11787.47 1124.42c40.26,-18.79 54.76,-12.68 65.86,2l0 329.45c-31.86,1.57 -59.19,-2.01 -85.17,-37.74 -6.01,-8.26 -10,-48.58 -9.77,-56.85 0.93,-34.16 -50.44,-75.75 -19.54,-113.7 28.36,-34.85 12.99,-56.37 48.62,-123.16z"/>
           <path id="117" class="fil2" d="M11577.22 948.96c34.63,56.83 73.32,77.41 115.51,121.96 22.42,23.67 66.92,51.95 43.08,80.39 -8.92,10.61 -46.75,54.64 -47.08,66.62 -1.7,62.6 -37.9,87.94 -96.88,25.65 -19.3,-20.37 -32.48,-69.19 -59.59,-97.81 -27.65,-29.2 -45.73,-22.56 -66.93,-35.77 -35.19,-21.95 -32.98,-14.87 -15.57,-51.34 7.83,-16.4 17.08,-26.04 23.84,-44.62 10.94,-30.01 21.93,-42.8 47.08,-66.62 20.61,-19.52 59.81,0.8 56.54,1.54z"/>
           <path id="118" class="fil2" d="M11199.78 887.77c53.46,-133.78 148.66,-86.49 228.63,-84.32 50.07,1.36 154.29,-34.83 208.73,22.66 13.78,14.54 40.64,89.43 4.27,51.04 -33.7,-35.6 -112.46,-52.07 -146.39,-26.62 -90.29,67.74 -0.38,58.8 -14.38,112.78 -18.92,72.88 -64.8,13.01 -90.16,-13.77 -42.93,-45.34 -2.54,26.98 -1.53,56.53 2.13,62.62 53.84,166.07 -48.92,134.47 -58.6,-18 -91.14,-67.41 -113.7,19.55 -6.28,24.18 -55.39,65.33 -75.19,60.19 -80.82,-20.97 29.6,-286.17 48.64,-332.51z"/>
           <path id="119" class="fil2" d="M11101.67 958.66c-11.17,166.03 -79.84,280.71 108.74,370.74 101.55,48.47 87.82,167.51 39.08,227.39 -63.25,77.71 -75.6,-84.59 -149.74,-111.58 -158.97,-57.86 -261.71,-110.69 -212.67,-294.35 13.18,-49.31 33.9,-143.8 77.97,-161.97 31.53,-13.01 31.91,-35.5 63.27,-37.88 20.07,-1.54 76.06,-2.79 73.35,7.65z"/>
          </g>
          <path id="120" class="fil2" d="M11622.26 1844.16c34.46,-144.57 154.17,-11.18 231.07,71.01l0 47.76c-49.57,-13.97 -102.84,-19.22 -136.04,6.6 -39.6,30.81 -160.12,45.34 -125.64,-19.06 49.65,-92.77 -20.37,-145.6 -59.6,29.46 -45.83,204.54 146.75,45.16 172.67,193.22l62.64 357.82c27.77,158.6 -496.23,-300.79 -219.19,-384.65 2.55,-0.78 -52.52,-41.5 -63.52,-77.83 -15.26,-50.39 52.08,-220.74 -38.62,-165.28 -145.64,89.06 22.04,31.26 -37.9,119.94 -31.27,46.23 -119.73,128.07 -167.55,182.03 -84.96,95.82 -64.82,130.7 -8.4,-8.88 27.1,-67.05 -110.28,-405.24 58.89,-314.68 52.49,28.09 203.24,-122.36 187.02,-136.54 -27.75,-24.24 24.81,-138.81 5.42,-132.95 -90.57,27.42 -80.15,98.48 -209.52,137.64 -96.72,29.28 -229.24,106.84 -81.61,13.29 21.2,-13.44 230.69,-388.52 216.19,-191.04 -8.96,122.07 100.82,-53.24 121.1,-128.01 26.85,-98.98 -109.48,-156.2 20.16,-103.15 110.83,45.37 61.55,7.82 16.46,92.07 -27.02,50.47 -6.44,173.01 5.31,243.88 4.74,28.51 -49.82,65.41 -29.03,111.55 13.43,29.8 76.15,-3.91 79.69,55.8z"/>
         </g>
         <g>
          <g>
           <path id="121" class="fil2" d="M2516.33 480.92c19.36,-18.33 32.45,-47.66 58.08,-55 12.36,-3.54 20.91,10.21 33.61,12.23 29.28,4.62 36.75,10.29 55.62,35.46 7.73,10.29 7.29,21.75 10.39,34.23 2.57,10.34 -7.94,14.88 -0.62,22.62l11 11.61 -11.61 11 11 11.62 -11.62 11 11 11.61 -11.61 11 11 11.62c7.32,7.74 -15.49,14.67 -23.23,22 -7.75,7.33 -12.79,19.88 -23.23,22 -6.17,1.25 -49.74,-9.74 -56.24,-12.84 -6.97,-3.34 -75.88,-75.78 -77,-81.31 -2.12,-10.44 -7.12,-15.29 0.61,-22.62l11.62 -11 11.61 -11c15.2,-14.39 -5.82,-16.52 -10.38,-34.23z"/>
           <path id="122" class="fil2" d="M2783.49 227.9c40.08,-60.4 93.57,-111.72 95.38,-178.47 1.01,-37.08 -36.47,-132.48 -88.62,-70.3 -13.32,15.88 -76.36,141.57 -80.08,31.77 -1.43,-42.09 22.4,-92.68 3.08,-113.08 -77.68,-82.02 -54.06,209.48 -160.16,63.54 -14.94,-20.56 -12.8,-60.05 -42.77,-91.69 -34.8,-36.75 -67.12,-28.57 -67.85,-1.85 -1.16,42.69 73.72,128.49 17.69,181.55 -58.27,55.18 -94.02,-62.25 -133.23,-94.16 -38.35,-31.21 -62.29,34.74 -58.7,77.62 5.42,64.53 35.2,38.92 66.62,47.08 59.15,15.34 -105.68,140.76 6.7,169.93 75.82,19.67 86.01,-46.85 116.15,-110.01 12.52,-26.19 85.67,-10.7 102.09,-8.54 38.88,5.09 43.72,31.17 78.84,13.46 73.14,-36.87 13.86,71.52 78.24,36.08 22.2,-12.23 34.5,-10.1 56.23,12.84 21.58,22.78 3.61,34.05 10.39,34.23 23.97,0.66 15.74,-26.08 0,0z"/>
           <path id="123" class="fil2" d="M2443.59 450.65c-43.6,-46.04 -90.78,-97.31 -144.23,-105.77 -48.87,-7.72 -93.55,-1.7 -108.81,47.96 -14.99,48.73 53.27,32.99 83.12,64.51 43.67,46.11 -5.96,70.19 -14.08,101.46 -13.74,52.96 -8.51,158.74 75.47,137.85 43.41,-10.81 66.12,-75.85 76.73,-116.74 7.16,-27.59 68.59,-13.58 46.46,-44 -9.6,-13.19 -139.24,5.84 -78.54,-24.77 7.82,-3.94 48.37,-12.37 62.65,-15.27 34.98,-7.07 47.74,-7.76 1.23,-45.23z"/>
           <path id="124" class="fil2" d="M2700.64 361.45c54.07,-135.3 215.53,-89.22 247.86,40.69 2.48,10 7.12,40.05 4.27,51.04 -7.74,29.82 -75.71,37.67 -13.16,67.54 76.59,36.56 -12.88,117.68 -59.61,111.54 -38.2,-5.01 -73.32,-54.15 -105.12,-87.73 -21.21,-22.39 -70.16,-69.81 -9.47,-68.15 15.1,0.41 43.15,-10.88 57.16,-21.08 28.32,-20.6 -21.91,-30.17 -27.5,-29.04 -32.28,6.54 -37.12,15.96 -73.97,14.96 -40.59,-1.1 -10.19,-51.79 -20.46,-79.77z"/>
           <path id="125" class="fil2" d="M2501.67 395.65c-37.44,-33.91 -71.94,-45.12 -65.39,-92.31 2.84,-20.37 20.54,-56.03 46.77,-55.31 23.77,0.64 28.71,27.9 56.54,1.53 34.5,-32.66 77.31,-34.7 113.09,3.08 26.86,28.36 20.82,57.39 -7.96,84.66l-11.62 11c-14.5,13.73 -39.73,18.06 -46.46,44 -2.31,8.86 13.27,2.25 -6.12,16.81 -21.63,16.24 -28.11,-6.69 -27.81,-17.73 0.17,-6.23 7.06,-25 6.43,-28.12 -3.39,-16.71 -15.93,-8.84 -22.62,-0.62 -10.69,13.13 5.15,17.16 -12.23,33.62 -13.42,12.71 -21.22,12.5 -22.62,-0.61z"/>
           <path id="126" class="fil2" d="M2229.08 224.15c-13.01,-126.53 -220.52,-213.6 -224.01,-85.31 -0.63,23.18 65.87,97.98 3.04,96.27 -11.11,-0.3 -76.71,1.95 -85.88,37.27 -9.9,38.13 40.15,42.9 66.62,47.08 77.28,12.23 -141.42,145.04 -49.54,157.08 112.4,14.75 10.02,98.07 -9.81,152.51 -25.4,69.78 77.4,13.42 101.47,14.08 42.42,1.15 -2,109.15 70.89,98.11 31.46,-4.77 68.81,-39.94 102.69,-31.15 111.27,28.87 -10.23,-66.61 -65.69,-81.01 -33.9,-8.8 -99.7,-59.81 -59.58,-97.81 83.37,-78.96 -11.59,-99.19 66.96,-173.58 22.15,-20.98 -42.14,-86.02 19.26,-84.35 38.46,1.05 65.8,-55.81 63.58,-49.19z"/>
           <path id="127" class="fil2" d="M2887.11 162.82c13.39,-20.17 110.72,-118.4 108.81,-47.96 -1.34,49.17 -29.2,55.79 32.38,57.46 90.07,2.45 93.47,21.53 81.89,109.73 -6.42,48.99 123.08,25.45 109.7,127.47 -3.43,26.14 -40.65,35.43 -46.77,55.31 -8.82,28.7 84.3,120.91 24.12,153.43 -58.67,31.69 -63.01,-25.67 -96.58,14.35 -85.03,101.35 -139.11,-31.67 -123.47,-37.31 37.52,-13.52 112.17,-58.04 81.93,-99.62 -34.96,-48.07 12.17,-61.88 -8.85,-90.77 -49.61,-68.21 -75.65,-61.76 -92.28,-143.97 -8.7,-43.02 -37.02,-8.77 -55.92,-24.15 -38.8,-31.59 -4.83,-52.25 -14.96,-73.97z"/>
           <path id="128" class="fil2" d="M2294.54 -102.25c-14.83,-96.35 -77.44,-200.37 -181.51,-191.66 -115.86,9.71 1.4,64.28 -31.5,117.97 -11.65,19 -71.01,-17.06 -89.85,-25.08 -33.51,-14.27 -146.4,-4.48 -120.12,47.66 65.87,130.64 -142.62,43.31 -117.69,166.54 4.46,22.09 82.19,-3.55 66.62,47.08 -28.32,92.11 21.46,79.56 94.43,64.81 31.4,-6.35 30.45,-81.81 70.92,-111.24 23.95,-17.43 69.85,-20.73 91.08,-20.15 36.62,0.99 18.58,-6.58 46.15,-32.7 20.5,-19.41 186.24,-19.64 171.47,-63.23z"/>
           <path id="129" class="fil2" d="M1832.99 224.69c-38.8,3.99 -99.89,17.54 -139.66,46.04l0 86.29c7.7,1.43 14.28,2.83 17.08,5.79 7.88,8.32 -4.37,23.44 -17.08,36.66l0 52.9c33.05,0.26 78.95,-6.86 59.24,24.75 -13.33,21.36 -64.33,88.42 -14.08,101.47 24.01,6.23 77.22,-23.88 55.62,35.46 -31.14,85.53 94.72,70.85 100.24,59.31 21,-43.99 2.25,-69.89 -30.85,-114 -26.05,-34.72 4.09,-58.72 13.77,-90.16 17.71,-57.62 -83.55,-34.3 -47.97,-108.81 20.44,-42.81 9.6,-100.99 3.69,-135.7z"/>
           <path id="130" class="fil2" d="M2352.31 -145.95c-61.74,-65.19 -24.38,-158.65 44.96,-196.81 51.75,-28.49 41.29,49.03 67.23,24.46 38.03,-36.02 129.22,-107.84 165.66,-57.74 9.78,13.44 -22.64,64 21.39,45.85 42.44,-17.5 91.92,-50.92 90.46,2.46 -1.51,55.7 -4.01,48.87 55.93,24.15 104.35,-43.01 56.74,124.72 -9.5,141.2 -58.69,14.61 -94.84,-53.4 -123.77,-26 -26.94,25.51 -53.52,71.75 -96.58,14.35 -16.03,-21.36 -14.95,-64.17 -54.7,-69.39 -30.78,-4.03 -25.63,35.29 -40.96,49.81 -1.54,1.47 -40.7,-13.42 -56.54,-1.53 -24.49,18.38 5.71,42.98 -18.65,61.73 -19.75,15.18 -84.85,19.21 -44.93,-12.54z"/>
           <path id="131" class="fil2" d="M2871.25 -86.57c7.12,-33.91 18.79,-95.78 70.31,-88.62 90.36,12.55 -44.97,86 60.2,75.19 20.23,-2.08 91.69,-34.23 101.46,14.08 2.99,14.77 -11.91,31.07 -0.92,33.92 29.57,7.68 78.55,18.56 66.31,58.39 -19.87,64.62 -14.93,26.95 21.08,57.15 49.25,41.33 -49.11,98.3 -81.62,88.32 -16.27,-5.01 -42.08,-11.55 -50.42,-18.35 -37.66,-30.66 -14.66,-34.35 -78.23,-36.08 -40.07,-1.09 -2.03,-42.79 1.53,-56.54 15.45,-59.5 -61.65,-18.56 -89.23,-47.69 -22.94,-24.22 -31.73,-69.44 -20.47,-79.77z"/>
           <path id="132" class="fil2" d="M2469.83 734.27c187.87,54.96 93.8,446.17 -103.07,461.18 -82.74,6.3 48.74,-76.5 -24.12,-153.43 -25.33,-26.75 -74.21,-45.61 -101.16,-25.38 -41.93,31.45 83.08,114.54 17.39,192.85 -51.18,61 -138.84,111.96 -136,7.62 7.05,-259.39 -49.12,192.43 -143.97,92.27 -25.42,-26.84 -116.86,56.29 -35.77,66.93 122.22,16.02 140.63,108.75 270.78,29.99 87.87,-53.17 203.49,-118.43 298.63,-161.62 111.77,-50.74 132.79,-97.52 135.42,-194.36 2.35,-86.49 89.99,-45.46 54.7,69.39 -27.39,89.08 119.2,-46.96 122.85,59.92 1.31,38.61 -56.27,133.12 -99.66,127.43 -16.34,-2.15 -15.86,-44.26 -5.81,5.5 28.83,142.56 212.22,-50.68 218.24,-118.55 4.55,-51.32 -15.78,-177.34 -103.28,-155.58 -100.99,25.13 -45.17,-38.03 -65.08,-103.62 -14.23,-46.87 -52.44,-46.69 -89.23,-47.69 -38.09,-1.03 -31.72,-91.66 -64.47,-126.23 -35.93,-37.95 -139.34,-30.8 -146.39,-26.62z"/>
           <path id="133" class="fil2" d="M1815.09 1299.27c15.16,-51.83 66.58,-104.19 32.11,-140.58 -27.43,-28.97 -99.44,-47.5 -77,-81.31 31.1,-46.85 67.7,-30.67 108.19,-25.35 40.06,5.25 29.91,57.19 37.28,85.88 15.93,62.12 97.3,96.37 41.54,136.93 -36.67,26.68 -68.93,25.04 -64.5,83.12 1.48,19.52 34.05,71.27 31.77,80.08 -14.31,55.13 -103.33,3.99 -117.97,-31.5 -10.23,-24.81 -29.66,-32.42 -9.77,-56.85 12.82,-15.74 3.3,-14.13 17.73,-27.8 21.37,-20.24 -3.35,-9.85 0.62,-22.62z"/>
           <path id="134" class="fil2" d="M1693.33 1126.41c9.44,12.48 16.42,31.15 34.68,46.01 22.42,18.26 40.23,-12.06 61.42,29.96 30.43,60.33 -64.2,71.99 -65.73,128.35 -0.44,16.29 2.83,122.75 -14.69,124.08 -5.35,0.41 -10.57,0.8 -15.68,1.05l0 -329.45z"/>
          </g>
          <path id="135" class="fil2" d="M1693.33 1915.18c20.98,22.43 38.79,41.06 50.79,49.17 138.21,93.44 51.58,27.41 -50.79,-1.43l0 -47.74z"/>
         </g>
         <g>
          <path id="136" class="fil2" d="M11853.33 4160.93c-61.59,-103.79 -107.99,-219.06 -122.28,-295.86 -23.5,-126.3 -343.12,-567.93 -245.11,-599.71 155.95,-50.56 237.47,105.02 367.39,156.28l0 373.55c-7.39,8.53 -14.34,18.4 0,32.24l0 333.5zm-113.1 -465.25c28.4,32.91 15.86,39.88 49.1,33.7l10.34 -1.92 -1.93 -10.36c-1.28,-6.89 16.73,1.94 20.7,-3.86 3.96,-5.76 -6.41,-14.16 -3.85,-20.69 4,-10.16 12.71,-7.84 4.58,-32.97 -1.21,-3.71 -13.4,-18.33 -14.2,-18.77 -3.15,-1.71 -27.15,-4.98 -32.98,-4.58 -7,0.5 -21.99,-3.03 -20.7,3.86l1.93 10.35 -10.35 1.93 1.92 10.35c1.67,8.94 -23.01,16.96 -4.56,32.96z"/>
          <path id="137" class="fil2" d="M11853.33 3052.66c-239.37,-37.83 -499.22,-132.04 -684.11,-316.82 -73.16,-73.11 -216.7,-119.39 -72.19,-54.09 166.16,75.1 517.15,157.63 756.3,86.4l0 284.51z"/>
         </g>
         <g>
          <path id="138" class="fil2" d="M2124.26 4207.16c-107.86,336.75 -302.48,170.23 -430.93,-46.24l0 -333.49c0.67,0.66 1.39,1.31 2.16,1.98 43.44,50.33 24.28,60.99 75.09,51.53l15.84 -2.94 -2.95 -15.83c-1.96,-10.55 25.59,2.95 31.66,-5.89 6.06,-8.85 -9.82,-21.67 -5.89,-31.66 6.1,-15.54 19.43,-12 6.98,-50.43 -1.83,-5.68 -20.48,-28.05 -21.71,-28.71 -4.81,-2.62 -41.51,-7.61 -50.44,-6.99 -10.69,0.75 -33.62,-4.65 -31.65,5.89l2.94 15.83 -15.82 2.95 2.94 15.82c0.99,5.34 -4.18,10.48 -9.15,16.21l0 -373.55c13.52,5.33 27.56,9.55 42.26,12.27 153.08,28.35 223.26,-19.3 391.14,-50.54 257.6,-47.93 258.23,217.79 201.08,363.12 -7.3,18.58 -38.66,73.01 -48.51,98.04 -27.64,70.31 33.5,127.14 -7,201.57 -50.55,92.9 -70.62,70.74 -148.04,161.06zm-299.33 5.39c59.02,68.39 32.99,82.87 102.04,70.02l21.51 -4 -4.01 -21.51c-2.66,-14.33 34.77,4.01 43.02,-8 8.24,-12.02 -13.34,-29.45 -8,-43.02 8.3,-21.11 26.41,-16.31 9.5,-68.52 -2.5,-7.72 -27.85,-38.12 -29.52,-39.01 -6.52,-3.56 -56.4,-10.35 -68.52,-9.5 -14.54,1.01 -45.68,-6.32 -43.02,8l4.01 21.51 -21.51 4 4 21.51c3.46,18.57 -47.83,35.27 -9.5,68.52zm-112.08 -177.51c28.4,32.91 15.87,39.88 49.1,33.7l10.34 -1.93 -1.93 -10.35c-1.28,-6.89 16.74,1.93 20.71,-3.85 3.96,-5.78 -6.42,-14.17 -3.85,-20.7 3.99,-10.16 12.71,-7.85 4.57,-32.98 -1.21,-3.7 -13.4,-18.33 -14.2,-18.76 -3.14,-1.72 -27.14,-4.98 -32.97,-4.58 -7,0.5 -21.99,-3.02 -20.71,3.86l1.93 10.35 -10.35 1.92 1.93 10.36c1.66,8.93 -23.01,16.96 -4.57,32.96zm140.3 -88.96c59.02,68.39 32.99,82.87 102.04,70.02l21.51 -4 -4 -21.51c-2.67,-14.33 34.77,4.01 43.01,-8 8.25,-12.02 -13.34,-29.45 -8,-43.02 8.3,-21.11 26.42,-16.31 9.5,-68.52 -2.5,-7.72 -27.85,-38.12 -29.51,-39.01 -6.52,-3.56 -56.4,-10.35 -68.53,-9.5 -14.54,1.01 -45.68,-6.32 -43.01,8l4 21.51 -21.51 4 4 21.51c3.46,18.57 -47.82,35.27 -9.5,68.52z"/>
          <path id="139" class="fil2" d="M2862.82 2102.63c-326.2,83.41 -55.14,495.99 -322.3,713.24 -239.94,195.11 -480.39,277.07 -756.52,248.62 -29.75,-3.07 -60.04,-6.99 -90.67,-11.83l0 -284.51c130.14,-38.76 227.19,-123.01 243.25,-278.87 15.62,-151.65 -61.6,-631.85 31.52,-758.75 176.96,-241.15 195.22,-190.93 443.54,-78.71 72.33,32.68 354.2,269.76 176.26,251.42 -35.73,-3.68 -239.46,5.04 -275.86,111.54 -95.41,279.09 87.96,-37.59 235.57,-22.38 38.49,3.97 425.41,-114.66 315.21,110.23z"/>
         </g>
         <g>
          <path id="140" class="fil2" d="M10180.22 -3810c2.09,3.46 4.14,5.5 6.14,5.67 13.93,1.2 22.5,-1.06 27.62,-5.67l-33.76 0zm345.46 0c50.42,123.24 101.64,277.4 196.21,213.1 53.89,-36.65 -53.09,-117.33 -59.3,-159.06 -15.12,-101.33 126.37,93.89 256.04,-14.6 12.55,-10.5 17.05,-24.63 15.23,-39.44l-408.18 0z"/>
          <path id="141" class="fil2" d="M8377.38 -3810c74.45,29.19 166.12,42.66 220.23,0l-220.23 0zm446.43 0c74.17,50.09 164.75,110.3 272.46,121.84 228.93,24.51 172.44,-56.71 138.86,-121.84l-411.32 0zm648.18 0c37.81,24.26 77.86,47.21 124.96,53.54 157.09,21.12 240.56,-7.94 265.92,-53.54l-390.88 0z"/>
         </g>
         <g>
          <path id="142" class="fil2" d="M10455.44 6092.95c62.47,19.67 149.84,24.2 138.17,-54.07 -11.33,-75.98 -45.17,4.35 -8.41,-74.03 10.64,-22.7 45.65,-69.38 -8.41,-74.04 -69.41,-5.98 24.12,-24.23 -17.98,-67.53 -96.95,-99.69 -104.71,67.12 -108.84,100.59 -21.04,170.82 -208.21,194.95 -354.67,174.71 -77.85,-10.76 -188.55,-26.6 -242.9,-20.93 -7.19,0.75 245.25,38.89 288.43,149.48 13.67,35.03 27.29,102.89 39.39,122.87l33.76 0c18.1,-16.27 -6.89,-61.74 10.02,-86.38 44.88,-65.41 76.67,25.26 119.66,24.97 57.76,-0.4 20.97,-78.84 87.91,-73.07 36.48,3.14 65.17,63.72 94.12,134.48l408.17 0c-3.06,-24.97 -24.1,-51.89 -54.77,-66.6 -54.18,-26 -195.27,45.63 -208.2,-17.94 -7.03,-34.59 150.21,-4.04 149.53,-75.08 -1.18,-120.9 -130.04,-44.5 -192.64,-1.94 -119.04,80.95 -158.99,-103.85 -172.34,-95.49z"/>
          <path id="143" class="fil2" d="M7739.32 6044.26c680.11,-39.23 276.58,109.98 586.13,281.42 15.66,8.67 33.27,16.98 51.97,24.32l220.16 0c10.51,-8.29 19.63,-18.67 26.9,-31.49 42.88,-75.59 108.91,-29.58 199.34,31.49l411.32 0c-26.08,-50.58 -38.33,-91.47 107.71,-65.59 44.98,7.97 85.58,37.64 129.14,65.59l390.9 0c44.1,-79.29 -87.77,-208.63 -315,-211.21 -123.32,-1.4 -221.73,65.64 -217.7,-34.18 1.69,-41.99 199.45,-7.15 202.48,-82.24 7.4,-183.35 -393.39,117.21 -403.26,122.23 -174.71,88.81 -181.91,-13.55 -357.48,-25.2 -110.28,-7.32 -157.14,56.85 -261.78,71 -109.87,14.87 -165.49,-156.98 -311.69,-172.63 -89.93,-9.63 -500.24,-17.06 -459.14,26.49z"/>
         </g>
        </g>
       </pattern>
      <rect style="fill:url(#id5)" x="3975.45" y="-838.79" width="5295.54" height="5165.25"/>
     </mask>
     <mask id="id6">
  <linearGradient id="id7" gradientUnits="userSpaceOnUse" x1="-1525.12" y1="3172.07" x2="4533.33" y2="1140.07">
   <stop offset="0" style="stop-opacity:1; stop-color:white"/>
   <stop offset="1" style="stop-opacity:0; stop-color:white"/>
  </linearGradient>
      <rect style="fill:url(#id7)" x="-1535.12" y="-322.5" width="11246.8" height="4504.57"/>
     </mask>
     <mask id="id8">
       <pattern id="id9" patternUnits="userSpaceOnUse" x="2470.69" y="-419.46" width="3358.15" height="4508.86" viewBox="5189.5 -911.78 3358.14 4508.85">
        <g id="Layer_x0020_1_1">
         <metadata id="CorelCorpID_2Corel-Layer"/>
         <g>
          <path id="1" class="fil5" d="M6868.57 849.17l-1473.28 -1473.28 -205.79 205.8 1707.07 1707.07c55.23,55.23 1.47,106.3 -28,135.77l205.79 205.79 90.12 -90.11c108.81,-108.81 108.81,-286.31 0,-395.13l-295.91 -295.91z"/>
          <path id="2" class="fil6" d="M5303.97 -509.64l45.06 -45.05c587.84,587.84 1153.6,1142.87 1736.03,1736.03 40.13,40.88 84.51,156.62 34.05,235.92l-34.72 54.56c21.11,-126.73 40.12,-164.9 -72.76,-277.81l-1705.65 -1705.66 -2.01 2.01z"/>
          <path id="3" class="fil7" d="M5221.28 -430.26l45.06 -45.05c587.84,587.84 1076.3,1076.29 1664.1,1664.09 84.93,84.93 57.96,201.9 33.36,226.5 21.11,-126.73 -63.54,-170.57 -106.79,-213.83l-1633.72 -1633.72 -2.01 2.01z"/>
          <path id="4" class="fil8" d="M6874.92 1430.88l189.96 189.96 -1.89 -6.38c-6.56,-59.04 -129.26,-186.54 -188.07,-183.58z"/>
         </g>
         <g>
          <path id="5" class="fil5" d="M6868.56 1836.11l1473.28 1473.28 205.79 -205.8 -1707.07 -1707.07c-55.23,-55.23 -1.47,-106.3 28,-135.77l-205.79 -205.79 -90.12 90.11c-108.81,108.81 -108.81,286.31 0,395.13l295.91 295.91z"/>
          <path id="6" class="fil7" d="M8433.16 3194.92l-45.06 45.05c-587.84,-587.84 -1153.6,-1142.87 -1736.03,-1736.03 -40.13,-40.88 -84.51,-156.62 -34.05,-235.92l34.72 -54.56c-21.11,126.73 -40.12,164.9 72.76,277.81l1705.65 1705.66 2.01 -2.01z"/>
          <path id="7" class="fil9" d="M8515.85 3115.54l-45.06 45.05c-587.84,-587.84 -1076.3,-1076.29 -1664.1,-1664.09 -84.93,-84.93 -57.96,-201.9 -33.36,-226.5 -21.11,126.73 63.54,170.57 106.79,213.83l1633.72 1633.72 2.01 -2.01z"/>
          <path id="8" class="fil8" d="M6862.21 1254.4l-189.96 -189.96 1.89 6.38c6.56,59.04 129.26,186.54 188.07,183.58z"/>
         </g>
         <g>
          <polygon id="9" class="fil5" points="8547.64,-418.31 7074.36,1054.97 6868.57,849.17 8547.64,-829.9 "/>
          <path id="10" class="fil7" d="M6983.04 940.5l45.06 45.05c514.77,-514.77 1012.61,-1004.37 1519.54,-1516.47l0 -89.17 -1562.59 1562.6 -2.01 -2.01z"/>
          <path id="11" class="fil9" d="M6900.35 861.12l45.06 45.05 1602.23 -1602.22 0 -85.39c-4.08,3.65 -7.96,7.25 -11.56,10.85l-1633.72 1633.72 -2.01 -2.01z"/>
         </g>
         <g>
          <path id="12" class="fil5" d="M8495.86 -911.78c2.13,33.39 32.27,62.37 51.78,81.88l-205.79 205.79 -90.12 -90.11c-54.41,-54.4 -81.61,-125.98 -81.61,-197.56l325.74 0z"/>
          <path id="13" class="fil6" d="M8274.76 -911.78c1.2,26.12 7.87,51.86 22.34,74.61l34.72 54.56c-9.24,-55.45 -18.07,-93.95 -15.63,-129.17l-41.43 0z"/>
          <path id="14" class="fil7" d="M8428.49 -911.78c2.43,34.63 13.39,62.1 23.92,72.63 -4.66,-27.95 -4.17,-51.87 -0.11,-72.63l-23.81 0z"/>
          <path id="15" class="fil8" d="M8541.29 -823.55l-189.96 189.96 1.89 -6.38c6.56,-59.04 129.26,-186.54 188.07,-183.58z"/>
         </g>
         <g>
          <polygon id="16" class="fil5" points="5189.5,3103.59 6662.77,1630.32 6868.56,1836.12 5189.5,3515.18 "/>
          <path id="17" class="fil6" d="M6754.09 1744.79l-45.06 -45.05c-514.77,514.77 -1012.61,1004.37 -1519.53,1516.46l0 89.17 1562.58 -1562.59 2.01 2.01z"/>
          <path id="18" class="fil7" d="M6836.78 1824.17l-45.06 -45.05 -1602.22 1602.21 0 85.39c4.08,-3.65 7.96,-7.25 11.55,-10.84l1633.72 -1633.72 2.01 2.01z"/>
         </g>
         <g>
          <path id="19" class="fil5" d="M5189.5 -829.91l28 -28c18.66,-18.66 24.86,-36.84 23.78,-53.87l325.74 0c-0.01,71.57 -27.21,143.15 -81.61,197.55l-295.91 295.91 0 -411.59z"/>
          <path id="20" class="fil7" d="M5189.5 -530.93c71.96,-72.68 144.1,-145.83 216.49,-219.56 28.62,-29.15 59.38,-96.37 56.39,-161.29l-41.43 0c-3.14,45.26 -24.91,85.12 -88.39,148.62l-143.06 143.06 0 89.17z"/>
          <path id="21" class="fil9" d="M5189.5 -696.06l61.87 -61.87c48.56,-48.56 60.54,-107.59 57.29,-153.85l-23.83 0c-12.8,65.56 -61.13,99.74 -95.33,130.33l0 85.39z"/>
         </g>
         <g>
          <path id="22" class="fil5" d="M5241.29 3597.07c-2.13,-33.39 -32.27,-62.37 -51.78,-81.88l205.79 -205.79 90.12 90.11c54.41,54.4 81.61,125.98 81.61,197.56l-325.74 0z"/>
          <path id="23" class="fil7" d="M5462.39 3597.07c-1.2,-26.12 -7.87,-51.86 -22.34,-74.61l-34.72 -54.56c9.24,55.45 18.07,93.95 15.63,129.17l41.43 0z"/>
          <path id="24" class="fil9" d="M5308.66 3597.07c-2.43,-34.63 -13.39,-62.1 -23.92,-72.63 4.66,27.95 4.17,51.87 0.11,72.63l23.81 0z"/>
          <path id="25" class="fil8" d="M5195.86 3508.84l189.96 -189.96 -1.89 6.38c-6.56,59.04 -129.26,186.54 -188.07,183.58z"/>
         </g>
         <g>
          <path id="26" class="fil5" d="M8547.63 3103.6l0.01 -0.01 0 411.59 -28.01 28.01c-18.66,18.66 -24.86,36.84 -23.78,53.88l-325.74 0c0.01,-71.58 27.21,-143.15 81.61,-197.56l295.91 -295.91z"/>
          <path id="27" class="fil6" d="M8547.64 3216.2c-71.96,72.69 -144.1,145.84 -216.5,219.57 -28.62,29.15 -59.39,96.37 -56.39,161.3l41.43 0c3.14,-45.27 24.9,-85.13 88.39,-148.63l143.07 -143.07 0 -89.17z"/>
          <path id="28" class="fil7" d="M8547.64 3381.33l-61.88 61.88c-48.57,48.57 -60.53,107.6 -57.28,153.86l23.81 0c12.8,-65.58 61.15,-99.77 95.35,-130.35l0 -85.39z"/>
         </g>
        </g>
       </pattern>
      <rect style="fill:url(#id9)" x="2460.69" y="-678.88" width="5452.94" height="4778.28"/>
     </mask>
 </defs>
 <g id="Layer_x0020_1">
  <metadata id="CorelCorpID_0Corel-Layer"/>
  <g style="clip-path:url(#id0)">
   <polygon class="fil0" style="mask:url(#id1)" points="-0,0 13546.67,0 13546.67,2540 -0,2540 "/>
  </g>
  <g style="clip-path:url(#id3)">
   <g id="_2100377164976">
    <path id="143" class="fil3 str0" style="mask:url(#id4)" d="M7430.57 4097.7c-1343.09,460.66 -2793.35,-219.76 -3239.25,-1519.76 -445.88,-1299.99 281.45,-2727.3 1624.55,-3187.96 1343.09,-460.68 2793.36,219.75 3239.24,1519.73 445.9,1300.01 -281.44,2727.32 -1624.54,3187.99z"/>
    <polygon class="fil4 str1" style="mask:url(#id6)" points="-1525.12,-312.5 9701.68,-312.5 9701.68,3172.07 -1525.12,3172.07 "/>
    <path id="28" class="fil10 str2" style="mask:url(#id8)" d="M3029.57 3095.89c-911.39,-1067.97 -684.24,-2554.12 507.34,-3319.39 1191.61,-765.26 2896.44,-519.86 3807.83,548.11 911.4,1067.99 684.24,2554.15 -507.36,3319.4 -1191.59,765.28 -2896.41,519.87 -3807.81,-548.12z"/>
   </g>
  </g>
  <polygon class="fil11 str3" points="-0,0 13546.67,0 13546.67,2540 -0,2540 "/>
  <path class="fil12" d="M10933.99 1897l-54.67 -58.52 -224.46 91.71 2.54 81.49c1.01,31.83 -0.12,54.05 -3.5,66.69 -3.27,12.58 -13.23,22.35 -29.81,29.12 -14.01,5.73 -28.59,5.68 -43.58,-0.19 -15.01,-5.87 -25.18,-15.36 -30.49,-28.35 -3.1,-7.58 -5.01,-15.95 -5.83,-24.92 -0.74,-9.14 -1.14,-21.89 -1.24,-38.65l-5.31 -416.1c-0.09,-11.96 -0.37,-26.24 -0.6,-42.95 -0.28,-16.83 0.88,-31.27 3.42,-43.41 2.55,-12.13 7.75,-23.27 15.74,-33.43 8,-10.17 19.65,-18.38 34.95,-24.64 15.68,-6.4 29.88,-8.75 42.7,-7.08 12.83,1.65 24.29,5.82 34.49,12.45 10.22,6.63 19.71,14.45 28.44,23.34 8.73,8.88 20.22,20.84 34.16,35.84l289.8 297.29c22.4,22.51 36.09,39.86 41.14,52.21 5.2,12.73 4.75,26.71 -1.55,41.74 -6.31,15.03 -17.15,25.61 -32.19,31.75 -8.74,3.57 -16.95,5.13 -24.57,4.49 -7.42,-0.56 -14.43,-2.66 -21.01,-6.27 -6.44,-3.66 -14.36,-10.18 -23.76,-19.24 -9.59,-9.13 -17.75,-17.36 -24.81,-24.37zm-284.04 -62.91l164.93 -67.39 -176.16 -193.56 11.23 260.95zm891.15 -315.68c7.19,17.61 10.73,38.37 10.34,62.38 -0.26,23.96 -5.69,49.58 -16.29,76.87 -10.42,27.36 -27.69,53.02 -51.45,77.13 -23.94,24.03 -55.09,43.96 -93.54,59.67 -29.04,11.87 -56.63,19.99 -82.8,24.24 -26.04,4.19 -51.29,4.45 -75.48,0.69 -24.14,-3.64 -48.45,-11.72 -72.54,-24.07 -21.63,-11.42 -41.98,-25.61 -61.03,-42.87 -19.06,-17.27 -36.17,-37.13 -51.25,-59.32 -15.12,-22.33 -28.25,-47.12 -39.44,-74.5 -18.12,-44.35 -27.97,-86.83 -29.34,-127.24 -1.53,-40.47 4.82,-78.17 18.67,-112.94 13.98,-34.81 34.36,-65.34 61.4,-91.7 27.08,-26.21 58.98,-46.9 95.62,-61.88 44.74,-18.28 88.09,-25.63 130.36,-22.05 42.09,3.5 77.86,14.69 107.22,33.29 29.23,18.66 48.7,39.52 58.26,62.91 5.25,12.86 5.2,25.93 0.24,39.5 -5,13.46 -13.94,22.81 -26.8,28.07 -14.26,5.82 -26.48,6.77 -36.29,2.97 -9.98,-3.88 -22.72,-12.31 -38.25,-25.33 -25.84,-21.39 -51.29,-34.85 -76.53,-40.43 -25.31,-5.41 -52.26,-2.35 -81.19,9.47 -46.03,18.81 -75.39,51.2 -88.41,97.18 -12.96,46.1 -6.31,101.3 19.95,165.58 17.55,42.93 38.2,76.2 61.94,99.8 23.62,23.66 49.38,37.88 77.27,42.99 27.84,4.98 56.57,1.49 86.26,-10.64 32.14,-13.13 56.02,-32.19 71.74,-57.23 15.73,-25.03 22.88,-55.25 21.53,-90.85 -1.18,-16.47 -0.09,-30.72 3.2,-42.86 3.21,-11.97 12.63,-21.22 28.18,-27.57 13.37,-5.47 26.7,-5.51 40.05,-0.02 13.3,5.37 22.78,15 28.4,28.76zm499.38 -73.54l-54.67 -58.53 -224.46 91.72 2.54 81.48c1.01,31.84 -0.12,54.06 -3.5,66.69 -3.27,12.58 -13.23,22.36 -29.81,29.13 -14.01,5.73 -28.59,5.68 -43.58,-0.2 -15.01,-5.87 -25.18,-15.35 -30.49,-28.34 -3.1,-7.58 -5.01,-15.95 -5.83,-24.93 -0.74,-9.14 -1.14,-21.88 -1.24,-38.64l-5.31 -416.1c-0.09,-11.96 -0.37,-26.25 -0.6,-42.95 -0.28,-16.84 0.88,-31.27 3.42,-43.41 2.54,-12.13 7.75,-23.27 15.74,-33.43 8,-10.17 19.65,-18.38 34.95,-24.64 15.68,-6.41 29.88,-8.75 42.7,-7.09 12.83,1.65 24.29,5.83 34.49,12.46 10.22,6.63 19.71,14.45 28.44,23.34 8.73,8.88 20.22,20.84 34.16,35.84l289.79 297.29c22.41,22.51 36.1,39.86 41.15,52.21 5.2,12.73 4.75,26.7 -1.55,41.73 -6.31,15.04 -17.15,25.61 -32.19,31.76 -8.74,3.57 -16.95,5.12 -24.57,4.49 -7.42,-0.57 -14.43,-2.66 -21.01,-6.27 -6.44,-3.67 -14.36,-10.19 -23.76,-19.24 -9.59,-9.13 -17.75,-17.36 -24.81,-24.37zm-284.04 -62.91l164.93 -67.4 -176.16 -193.56 11.23 260.96zm663.44 -116.27l-232.3 -315.54 155.7 381.04c8.62,21.08 10.32,38.84 5.24,53.22 -5.07,14.38 -15.39,24.74 -30.81,31.04 -15.05,6.15 -29.54,5.92 -43.31,-0.6 -13.77,-6.53 -24.99,-20.39 -33.71,-41.74l-178.5 -436.83c-9.88,-24.17 -10.19,-42.95 -1.19,-56.53 9.19,-13.5 24.42,-24.68 45.64,-33.35l34.7 -14.18c20.83,-8.51 36.66,-12.72 47.57,-12.84 10.9,-0.1 20.76,3.82 29.25,11.76 8.49,7.93 20.15,21.77 34.97,41.52l203.88 269.84 -43.44 -335.4c-3.26,-24.48 -4.62,-42.52 -4.11,-54.13 0.5,-11.61 4.66,-21.26 12.52,-28.82 7.86,-7.56 22.24,-15.69 43.07,-24.2l34.58 -14.13c21.34,-8.72 40.04,-11.41 56.05,-8.21 15.94,3.4 28.87,17.02 38.74,41.19l178.5 436.83c8.62,21.09 10.32,38.84 5.24,53.22 -5.08,14.38 -15.52,24.8 -31.21,31.2 -14.78,6.04 -29.14,5.77 -42.97,-0.89 -13.82,-6.65 -25.04,-20.52 -33.66,-41.61l-155.7 -381.03 55.16 387.92c3.51,25.11 5.76,43.84 6.39,56.04 0.71,12.02 -1.98,24.51 -8.18,37.24 -6.27,12.92 -17.99,22.81 -35.34,29.9 -13.11,5.36 -25.32,7.04 -36.63,5.06 -11.32,-1.97 -21.32,-6.28 -29.91,-12.98 -8.65,-6.81 -16.57,-14.83 -23.76,-24.34 -7.31,-9.47 -14.83,-19.44 -22.47,-29.67z"/>
  <path class="fil12" d="M1098.87 909.8l17.7 -78.11 -201.98 -134.15 -65.98 47.88c-25.77,18.72 -44.78,30.27 -57.14,34.57 -12.24,4.37 -25.92,1.62 -40.84,-8.29 -12.61,-8.37 -20.76,-20.46 -24.32,-36.16 -3.58,-15.72 -1.45,-29.46 6.32,-41.15 4.53,-6.82 10.37,-13.11 17.34,-18.83 7.14,-5.75 17.46,-13.24 31.27,-22.73l341.24 -238.18c9.84,-6.79 21.5,-15.05 35.19,-24.63 13.77,-9.69 26.36,-16.84 37.83,-21.56 11.47,-4.71 23.6,-6.66 36.5,-5.76 12.9,0.9 26.24,5.92 40.01,15.07 14.12,9.37 24.03,19.8 29.86,31.34 5.84,11.54 8.83,23.37 9.08,35.54 0.25,12.17 -0.88,24.42 -3.33,36.63 -2.44,12.21 -5.88,28.44 -10.46,48.4l-83.12 406.76c-6.02,31.18 -12.69,52.26 -20.07,63.37 -7.6,11.45 -19.42,18.94 -35.39,22.17 -15.99,3.22 -30.82,0.2 -44.36,-8.79 -7.86,-5.22 -13.76,-11.15 -17.51,-17.8 -3.71,-6.46 -5.92,-13.44 -6.62,-20.91 -0.59,-7.39 0.35,-17.6 2.56,-30.47 2.17,-13.06 4.39,-24.43 6.22,-34.21zm-107.54 -270.32l148.41 98.57 61.16 -254.47 -209.57 155.9zm761.83 559.84c-10.52,15.84 -25.71,30.44 -45.79,43.61 -19.97,13.24 -44.22,23.14 -72.74,29.7 -28.5,6.75 -59.43,6.89 -92.72,0.78 -33.32,-6.3 -67.32,-20.88 -101.91,-43.85 -26.14,-17.36 -48.36,-35.62 -66.58,-54.89 -18.09,-19.18 -32.49,-39.93 -42.97,-62.05 -10.55,-22.01 -17.53,-46.66 -20.85,-73.53 -2.71,-24.31 -2.4,-49.11 1.17,-74.58 3.58,-25.46 10.39,-50.78 20.29,-75.72 9.97,-25.05 23.1,-49.84 39.46,-74.48 26.51,-39.91 56.12,-71.93 88.78,-95.76 32.62,-24.01 67.37,-39.93 103.91,-48.01 36.66,-8 73.36,-8.29 110.36,-0.73 36.9,7.68 71.94,22.44 104.91,44.34 40.26,26.74 70.7,58.47 91.49,95.44 20.75,36.79 31.59,72.67 32.69,107.41 0.99,34.66 -5.32,62.49 -19.3,83.54 -7.68,11.57 -18.53,18.87 -32.54,22.39 -13.94,3.42 -26.7,1.29 -38.27,-6.4 -12.84,-8.52 -20.49,-18.1 -22.86,-28.35 -2.39,-10.43 -2.58,-25.72 -0.53,-45.87 3.18,-33.4 0.01,-62.01 -9.55,-86.03 -9.74,-23.98 -27.42,-44.55 -53.45,-61.84 -41.42,-27.51 -84.72,-33.6 -130.07,-18.54 -45.42,15.18 -87.34,51.69 -125.76,109.54 -25.66,38.63 -41.58,74.41 -47.77,107.31 -6.29,32.83 -3.58,62.13 7.86,88.07 11.52,25.83 30.54,47.63 57.27,65.38 28.92,19.21 58.1,28.26 87.64,27.19 29.54,-1.05 58.56,-12.11 87.26,-33.23 12.96,-10.23 25.35,-17.34 37.25,-21.44 11.7,-4.06 24.65,-1.47 38.64,7.83 12.03,7.99 19.56,18.99 22.51,33.12 3.03,14.02 0.39,27.27 -7.83,39.65zm341.4 371.79l17.71 -78.11 -201.98 -134.15 -65.98 47.88c-25.77,18.72 -44.79,30.27 -57.14,34.57 -12.24,4.37 -25.92,1.62 -40.84,-8.29 -12.62,-8.37 -20.76,-20.46 -24.33,-36.16 -3.57,-15.71 -1.44,-29.46 6.32,-41.15 4.53,-6.82 10.38,-13.11 17.35,-18.83 7.14,-5.74 17.46,-13.24 31.27,-22.73l341.23 -238.17c9.85,-6.8 21.5,-15.06 35.2,-24.64 13.77,-9.68 26.35,-16.83 37.82,-21.56 11.47,-4.71 23.61,-6.66 36.5,-5.76 12.91,0.91 26.25,5.93 40.02,15.07 14.11,9.37 24.03,19.8 29.86,31.34 5.84,11.54 8.82,23.37 9.07,35.54 0.26,12.17 -0.88,24.42 -3.33,36.64 -2.44,12.2 -5.88,28.43 -10.46,48.39l-83.11 406.76c-6.03,31.18 -12.69,52.26 -20.07,63.37 -7.61,11.45 -19.42,18.94 -35.4,22.17 -15.98,3.22 -30.82,0.2 -44.35,-8.79 -7.87,-5.22 -13.76,-11.14 -17.52,-17.8 -3.7,-6.46 -5.91,-13.44 -6.62,-20.91 -0.59,-7.39 0.36,-17.6 2.57,-30.47 2.17,-13.06 4.39,-24.43 6.21,-34.21zm-107.54 -270.32l148.42 98.58 61.15 -254.48 -209.57 155.9zm468.94 483.51l130.51 -369.45 -227.73 342.88c-12.6,18.98 -26.33,30.36 -41.08,34.24 -14.75,3.88 -29.12,1.17 -43,-8.05 -13.53,-8.99 -21.49,-21.11 -23.83,-36.17 -2.34,-15.05 2.83,-32.13 15.59,-51.34l261.08 -393.08c14.44,-21.75 29.8,-32.56 46.09,-32.75 16.33,0.02 34.14,6.33 53.23,19.01l31.23 20.75c18.74,12.44 31.12,23.18 37.34,32.13 6.21,8.97 8.5,19.32 6.71,30.81 -1.79,11.48 -6.68,28.9 -14.7,52.26l-108.67 320.26 253.04 -224.38c18.43,-16.44 32.59,-27.71 42.47,-33.81 9.89,-6.11 20.21,-8.09 30.89,-5.84 10.66,2.26 25.47,9.59 44.21,22.04l31.12 20.67c19.2,12.75 31.93,26.71 38.28,41.76 6.15,15.09 2.14,33.43 -12.31,55.18l-261.07 393.09c-12.61,18.98 -26.34,30.36 -41.09,34.24 -14.75,3.88 -29.23,1.09 -43.34,-8.29 -13.31,-8.83 -21.14,-20.87 -23.41,-36.04 -2.26,-15.18 2.91,-32.25 15.51,-51.23l227.74 -342.88 -289.92 263.57c-18.81,17.02 -33.04,29.41 -42.77,36.78 -9.55,7.34 -21.4,12.13 -35.41,14.16 -14.21,2.07 -28.97,-2.07 -44.58,-12.43 -11.81,-7.84 -20.06,-17 -24.78,-27.47 -4.72,-10.47 -6.78,-21.16 -6.07,-32.03 0.79,-10.98 2.97,-22.04 6.8,-33.33 3.72,-11.37 7.75,-23.2 11.92,-35.26z"/>
 </g>
</svg>
