<svg xmlns="http://www.w3.org/2000/svg" viewBox="0 0 932.03 467.7"><defs><style>.cls-1{font-size:110px;font-family:BaskOldFace, Baskerville Old Face;}.cls-1,.cls-2{fill:#ff3;}.cls-3{fill:#0f3;}.cls-4{fill:#fff;}</style></defs><title>Asset 4</title><g id="Layer_2" data-name="Layer 2"><g id="Layer_1-2" data-name="Layer 1"><text class="cls-1" transform="translate(323.03 269.86)">DUCA-SUP</text><path class="cls-2" d="M3,357.76a84.16,84.16,0,0,1,63-54.38,116,116,0,0,0,99.76,91.43c1.33.18,2.66.31,4,.43a115.45,115.45,0,0,0,67.68-15.05h0a115.83,115.83,0,0,0,55.78-77.32A84.18,84.18,0,0,1,373,315.7,198,198,0,0,1,3,357.76Z"/><path class="cls-2" d="M0,109.94a84.16,84.16,0,0,0,63,54.38,116,116,0,0,1,99.76-91.44c1.33-.17,2.66-.3,4-.42A115.37,115.37,0,0,1,234.4,87.51h0a115.83,115.83,0,0,1,55.78,77.32A84.18,84.18,0,0,0,370,152,198,198,0,0,0,0,109.94Z"/><rect class="cls-3" x="8.03" y="213.86" width="286" height="43.95" rx="21.17"/><rect class="cls-3" x="6.21" y="264.86" width="73.82" height="28.03" rx="11.18"/><rect class="cls-3" x="3.03" y="178.84" width="73.82" height="28.03" rx="11.18"/><path class="cls-4" d="M922,167.18a10,10,0,0,1,10,10V184a10,10,0,0,1-10,10h-13.1a10,10,0,0,0-10,10v22.83a10,10,0,0,1-10,10h-4.68a10,10,0,0,1-10-10V204a10,10,0,0,0-10-10H850a10,10,0,0,1-10-10v-6.85a10,10,0,0,1,10-10h14.22a10,10,0,0,0,10-10V142.86a10,10,0,0,1,10-10h4.68a10,10,0,0,1,10,10v14.32a10,10,0,0,0,10,10Z"/></g></g></svg>